<?xml version="1.0" encoding="UTF-8" standalone="no"?>
<!-- Created with Inkscape (http://www.inkscape.org/) -->

<svg
        width="170.15489mm"
        height="152.57898mm"
        viewBox="0 0 170.15489 152.57898"
        version="1.1"
        id="svg59449"
        xmlns:inkscape="http://www.inkscape.org/namespaces/inkscape"
        xmlns:sodipodi="http://sodipodi.sourceforge.net/DTD/sodipodi-0.dtd"
        xmlns="http://www.w3.org/2000/svg"
>
  <sodipodi:namedview
     id="namedview59451"
     pagecolor="#ffffff"
     bordercolor="#000000"
     borderopacity="0.25"
     inkscape:showpageshadow="2"
     inkscape:pageopacity="0.0"
     inkscape:pagecheckerboard="0"
     inkscape:deskcolor="#d1d1d1"
     inkscape:document-units="mm"
     showgrid="false" />
  <defs
     id="defs59446">
    <clipPath
       clipPathUnits="userSpaceOnUse"
       id="clipPath60720">
      <path
         id="path60722"
         style="fill:#ffffff;stroke:#ffffff;stroke-width:1.466;stroke-linejoin:round"
         d="m 131.12016,120.82415 v 22.61154 h 24.50393 v -22.61154 z" />
    </clipPath>
    <clipPath
       clipPathUnits="userSpaceOnUse"
       id="clipPath60730">
      <path
         id="path60732"
         style="fill:#ffffff;stroke:#ffffff;stroke-width:1.466;stroke-linejoin:round"
         d="M 40.697256,144.52916 V 180.6484 H 164.78116 v -36.11924 h -9.76737 c 0.0196,0.0955 0.031,0.19209 0.0465,0.28836 0.0204,0.12574 0.044,0.25115 0.0754,0.37465 0.0376,0.15401 0.0769,0.30814 0.10594,0.46406 0.0264,0.14435 0.0571,0.28771 0.10283,0.42736 0.0411,0.1252 0.093,0.24687 0.12713,0.37414 0.0244,0.0912 0.0149,0.15853 -0.0129,0.19843 -0.0147,0.15247 -0.17928,0.17889 -0.27957,0.001 -0.0375,0.0269 -0.0766,0.0498 -0.10232,0.0672 -0.0912,0.0616 0.004,0.0243 -0.1049,0.0362 -0.002,1.9e-4 -0.007,7.9e-4 -0.009,0.001 -0.005,0.0187 -0.0107,0.0372 -0.016,0.0558 -0.0236,0.0835 0.002,0.0717 -0.0785,0.0382 -0.0104,-0.004 -0.0206,-0.009 -0.031,-0.0129 0.007,0.038 0.009,0.0759 5.3e-4,0.11265 -0.0914,0.38923 -0.11908,0.0368 -0.0811,0.30748 0.005,0.0372 -0.008,0.0434 -0.0341,0.0165 -0.18747,-0.19177 0.0652,0.0352 -0.29198,-0.12247 -0.0206,-0.009 -0.0394,-0.0209 -0.0568,-0.0351 -0.013,0.0131 -0.0265,0.0274 -0.0372,0.0403 -0.0544,0.0658 0.007,0.0175 -0.0729,0.0465 -0.0667,0.024 -0.16755,0.0965 -0.24805,0.047 -0.0179,-0.011 -0.0251,-0.0333 -0.0377,-0.0501 -0.005,-0.007 -0.0107,-0.0144 -0.016,-0.0217 -0.0675,0.001 -0.13773,-0.002 -0.17829,-0.0222 -0.0225,-0.0111 -0.038,-0.0314 -0.0527,-0.0527 -0.025,0.0165 -0.0499,0.0324 -0.0744,0.0496 -0.0917,0.0652 -0.18034,0.13404 -0.25684,0.21704 -0.0104,0.0114 -0.0793,0.0889 -0.0904,0.0894 -0.20386,0.008 -0.22323,0.0404 -0.27956,-0.0501 0.0471,0.11899 0.10126,0.2345 0.15967,0.3483 0.0327,0.0656 0.0681,0.12982 0.10181,0.19482 0.008,0.0152 0.0198,0.0291 0.0248,0.0455 0.006,0.0171 0.005,0.0354 0.007,0.0532 -0.0324,0.0332 -0.0642,0.067 -0.0961,0.10025 -0.025,0.0254 0.003,0.01 -0.032,0.015 -0.0453,0.007 -0.0906,0.0137 -0.13591,0.0196 -0.0124,-0.0111 -0.027,-0.02 -0.0372,-0.0331 -0.0103,-0.0132 -0.0158,-0.0302 -0.0238,-0.045 -0.0349,-0.0658 -0.0697,-0.131 -0.10336,-0.1974 -0.01,-0.0189 -0.0175,-0.0389 -0.0269,-0.0579 -0.0728,0.051 -0.19359,0.0164 -0.26148,-0.1447 -0.0453,-0.1076 -0.0756,-0.22057 -0.1049,-0.33331 -0.0281,-0.11085 -0.0722,-0.21577 -0.11628,-0.32091 -0.0465,-0.11256 -0.10008,-0.22206 -0.15658,-0.32969 -0.0616,-0.11079 -0.1195,-0.22437 -0.1757,-0.33797 -0.0513,-0.0972 -0.0977,-0.19615 -0.14676,-0.29455 -0.0288,-0.0583 -0.0544,-0.11894 -0.077,-0.17984 -0.008,-0.0283 0.0114,-0.0478 0.0377,-0.0615 -0.10095,-0.1645 -0.0625,-0.29145 0.0382,-0.30024 0.003,-2.6e-4 0.007,-5.3e-4 0.0103,-5.3e-4 0.0531,-2.6e-4 0.12081,0.0301 0.19275,0.10129 0.088,0.087 0.14866,0.19657 0.21446,0.30024 8e-4,0.001 0.002,0.002 0.003,0.004 0.0231,-0.0689 0.0331,-0.0804 0.0801,-0.0744 0.0201,-0.0121 0.0416,-0.0218 0.0646,-0.0289 0.007,-0.003 0.0129,-0.007 0.0201,-0.0103 -0.01,-0.0482 1.8e-4,-0.0866 0.0217,-0.11265 -0.005,-0.006 -0.0105,-0.0118 -0.0155,-0.0181 -0.0152,-0.0191 -0.0266,-0.0415 -0.0398,-0.062 h 5.3e-4 c -0.0977,-0.15149 -0.0982,-0.26466 -0.0419,-0.31833 -0.027,-0.0325 -0.056,-0.0633 -0.0827,-0.0961 -0.0307,-0.0378 -0.0625,-0.0746 -0.0915,-0.11369 -0.0225,-0.0304 -0.0417,-0.0636 -0.063,-0.0951 -0.18063,-0.27097 -0.0828,-0.46985 0.0961,-0.46767 0.0937,10e-4 0.20939,0.0577 0.31936,0.1881 0.20766,0.24629 0.43554,0.47447 0.65577,0.70952 0.0648,-0.0341 0.13057,-0.0667 0.19534,-0.10077 0.004,-0.002 0.009,-0.005 0.0129,-0.007 -0.0233,-0.0759 -0.0413,-0.15312 -0.0522,-0.23204 -0.0305,-0.22158 0.0205,-0.33461 0.11059,-0.34003 0.0562,-0.004 0.12794,0.0376 0.20464,0.11783 -0.0368,-0.19555 0.004,-0.30094 0.0909,-0.30541 0.004,-2e-4 0.0102,0.002 0.014,0.002 -5.3e-4,-0.002 -0.002,-0.005 -0.002,-0.006 -0.006,-0.0193 -0.009,-0.0392 -0.0134,-0.0589 z" />
    </clipPath>
    <clipPath
       clipPathUnits="userSpaceOnUse"
       id="clipPath60882">
      <path
         id="path60884"
         style="fill:#ffffff;stroke:#ffffff;stroke-width:1.466;stroke-linejoin:round"
         d="m 143.69666,97.365635 v 19.681995 h 19.89077 V 97.365635 Z" />
    </clipPath>
    <clipPath
       clipPathUnits="userSpaceOnUse"
       id="clipPath60904">
      <path
         id="path60906"
         style="fill:#ffffff;stroke:#ffffff;stroke-width:1.466;stroke-linejoin:round"
         d="M 36.343519,92.646024 V 147.60494 H 152.56226 c -0.0247,-0.0739 -0.0445,-0.14942 -0.0641,-0.22479 -0.0281,-0.11085 -0.0722,-0.21577 -0.11628,-0.32091 -0.0465,-0.11256 -0.10008,-0.22211 -0.15658,-0.32969 -0.0616,-0.11079 -0.11898,-0.22437 -0.17518,-0.33797 -0.0514,-0.0972 -0.0982,-0.19615 -0.14728,-0.29455 -0.0288,-0.0583 -0.0527,-0.11894 -0.0754,-0.17984 -0.008,-0.0285 0.0116,-0.0473 0.0382,-0.061 -0.1011,-0.16459 -0.0632,-0.29145 0.0377,-0.30024 0.0545,-0.005 0.12636,0.0249 0.20309,0.10077 0.088,0.087 0.14866,0.19659 0.21446,0.30024 7.9e-4,0.001 0.002,0.002 0.003,0.004 0.0231,-0.0689 0.0331,-0.0816 0.0801,-0.0754 0.0201,-0.0121 0.0416,-0.0223 0.0646,-0.0295 0.007,-0.003 0.0131,-0.007 0.0201,-0.0103 -0.0103,-0.0489 -1.5e-4,-0.0876 0.0217,-0.11369 -0.005,-0.006 -0.01,-0.0116 -0.0145,-0.0176 -0.0152,-0.0191 -0.0266,-0.041 -0.0398,-0.0615 h 5.3e-4 c -0.0977,-0.1514 -0.0986,-0.26465 -0.0424,-0.31832 -0.0271,-0.0326 -0.0564,-0.0637 -0.0832,-0.0966 -0.0307,-0.0378 -0.0635,-0.0746 -0.0925,-0.11368 -0.0225,-0.0304 -0.0409,-0.0631 -0.062,-0.0946 -0.18067,-0.27097 -0.0833,-0.47038 0.0956,-0.46819 0.0937,0.001 0.20939,0.0577 0.31936,0.1881 0.20774,0.24639 0.43547,0.47488 0.65577,0.71004 0.0646,-0.034 0.13019,-0.0662 0.19482,-0.10026 0.005,-0.003 0.0103,-0.006 0.0155,-0.009 -0.0232,-0.0756 -0.0414,-0.1524 -0.0522,-0.23098 -0.0305,-0.22159 0.0205,-0.33462 0.11059,-0.34003 0.0567,-0.004 0.13075,0.0511 0.20826,0.1328 -0.0414,-0.2045 -0.001,-0.31478 0.0879,-0.31936 0.004,-1.9e-4 0.009,0.002 0.0139,0.003 -5.3e-4,-0.002 -0.002,-0.005 -0.002,-0.006 -0.006,-0.0203 -0.009,-0.0413 -0.0139,-0.062 v -5.3e-4 c -0.0694,-0.30844 0.008,-0.48103 0.14675,-0.47955 0.095,0.001 0.21893,0.0836 0.34417,0.25993 0.009,0.0125 0.0167,0.0242 0.0248,0.0372 0.0164,-0.1461 0.0701,-0.22231 0.1478,-0.22375 0.0831,-0.002 0.19335,0.0823 0.31419,0.25734 0.0103,0.0149 0.0202,0.0306 0.0294,0.046 0.001,-0.002 0.007,-0.006 0.007,-0.007 0.001,3e-5 0.006,2.6e-4 0.0212,0 0.0222,-7.9e-4 0.0417,-0.002 0.0579,-0.003 0.004,-1.6e-4 0.008,-0.001 0.0124,-0.001 v 0.001 c 0.06,-7.9e-4 0.0782,0.0114 0.0956,0.0992 0.0213,0.0997 0.0329,0.20116 0.0491,0.30179 0.0204,0.12573 0.0435,0.25167 0.0749,0.37517 0.0376,0.15401 0.0769,0.30762 0.10594,0.46354 0.0264,0.14434 0.0566,0.28823 0.10232,0.42788 0.0411,0.12521 0.0935,0.24635 0.12764,0.37362 0.0244,0.0912 0.0154,0.15802 -0.0124,0.19792 -0.0146,0.15141 -0.17546,0.17233 -0.27595,-0.001 -0.0386,0.028 -0.0794,0.0518 -0.10594,0.0698 -0.0912,0.0616 0.004,0.0243 -0.1049,0.0362 -0.002,2.2e-4 -0.008,7.9e-4 -0.0103,0.001 -0.005,0.0185 -0.0103,0.0373 -0.0155,0.0558 -0.0236,0.0835 0.002,0.0712 -0.0791,0.0377 -0.0102,-0.004 -0.0203,-0.009 -0.0305,-0.0129 0.006,0.0378 0.009,0.0754 0,0.11214 -0.0914,0.38923 -0.11923,0.0368 -0.0811,0.30748 0.005,0.0372 -0.008,0.0434 -0.0341,0.0165 -0.18747,-0.19177 0.0652,0.0352 -0.29198,-0.12247 -0.0206,-0.009 -0.0389,-0.021 -0.0563,-0.0351 -0.013,0.0131 -0.0265,0.0274 -0.0372,0.0403 -0.0544,0.0658 0.007,0.0175 -0.0729,0.0465 -0.0667,0.024 -0.16755,0.0965 -0.24805,0.047 -0.0179,-0.011 -0.0251,-0.0333 -0.0377,-0.0501 -0.005,-0.007 -0.0107,-0.0144 -0.016,-0.0217 -0.0675,0.001 -0.13772,-0.002 -0.17828,-0.0222 -0.0223,-0.011 -0.0376,-0.0311 -0.0522,-0.0522 -0.025,0.0165 -0.0504,0.0324 -0.0749,0.0496 -0.0917,0.0652 -0.18033,0.13403 -0.25683,0.21705 -0.0104,0.0114 -0.0788,0.0889 -0.0899,0.0894 -0.20687,0.009 -0.22434,0.0413 -0.28267,-0.0543 0.0259,0.0658 0.0533,0.13065 0.0837,0.1943 h 16.00109 V 92.646024 h -4.26899 c -0.005,0.01069 -0.0101,0.02138 -0.015,0.03204 -0.0117,0.02527 -0.098,0.212029 -0.10697,0.233061 -0.0204,0.04747 -0.0376,0.09637 -0.0584,0.143658 -0.0232,0.05266 -0.049,0.103955 -0.0734,0.156064 -0.0511,0.109255 -0.10206,0.218797 -0.15296,0.328144 -0.0543,0.100767 -0.091,0.210082 -0.14366,0.311611 -0.01,0.01839 -0.0221,0.03497 -0.0315,0.05374 -0.0397,0.123862 -0.105,0.237966 -0.16588,0.352433 -0.0376,0.01503 -0.0163,0.08677 -0.0512,0.102838 -0.10571,0.04866 -0.38984,-0.112323 -0.39584,-0.114723 -0.0548,-0.02204 -0.0853,-0.03303 -0.10336,-0.03876 -0.0836,0.146092 -0.16468,0.293658 -0.25425,0.436147 -0.0616,0.06745 -0.0816,0.158205 -0.12299,0.235646 -0.0453,0.08474 -0.11741,0.162181 -0.17931,0.234611 -0.10292,0.17353 -0.24735,0.30281 -0.4439,0.37052 -0.0732,0.02521 -0.15305,0.02521 -0.22945,0.03772 -0.0686,-0.0072 -0.14127,0.0031 -0.20567,-0.0217 -0.40042,-0.154207 -0.56013,-0.376414 -0.59273,-0.798914 -0.014,-0.181071 0.0131,-0.294908 0.047,-0.452687 -0.065,-0.02942 -0.12975,-0.05916 -0.19482,-0.08837 -0.16826,-0.07566 -0.007,0.009 -0.16743,-0.08268 -0.005,-0.003 -0.0964,-0.04947 -0.19431,-0.105937 h -5.3e-4 c -0.0262,0.07112 -0.052,0.142346 -0.0785,0.213424 -0.007,0.01648 -0.0395,0.126013 -0.0569,0.125574 -0.052,-0.0013 -0.10269,-0.0173 -0.15399,-0.02582 -0.0184,-0.0031 -0.0237,-0.003 -0.0253,-0.0026 -5.3e-4,1.06e-4 -8e-4,-0.0013 -0.0228,-0.01344 -0.0309,-0.01701 -0.0643,-0.03052 -0.0951,-0.04754 -0.002,7.94e-4 -0.004,0.0016 -0.006,0.0026 l -0.0677,0.04031 c -0.0194,0.01154 -0.0192,0.01244 -0.0212,-0.0098 -0.003,-0.02652 -0.006,-0.05307 -0.009,-0.07958 -0.007,-0.03253 -0.0223,-0.06455 -0.0202,-0.09767 0.002,-0.02806 0.068,-0.147484 0.078,-0.166915 0.0523,-0.101653 0.10455,-0.203624 0.15245,-0.307475 0.0948,-0.198067 0.18523,-0.398259 0.29042,-0.59118 0.0601,-0.121801 0.11986,-0.243517 0.1819,-0.364318 z m 125.776821,1.70584 c -0.006,0.0031 -0.0115,0.0065 -0.0171,0.0098 0.004,-0.0019 0.009,-0.0036 0.0134,-0.0052 0.001,-0.0013 0.002,-0.0031 0.004,-0.0047 z m -0.0858,0.05736 c -0.009,0.0068 -0.0189,0.01357 -0.0284,0.02016 -0.002,0.0019 -0.007,0.0075 -0.008,0.0093 h 5.3e-4 c 0.012,-0.0096 0.0239,-0.0195 0.0357,-0.02946 z" />
    </clipPath>
    <clipPath
       clipPathUnits="userSpaceOnUse"
       id="clipPath60914">
      <path
         id="path60916"
         style="fill:#ffffff;stroke:#ffffff;stroke-width:1.466;stroke-linejoin:round"
         d="m 159.44712,69.470177 v 24.506 h 1.04541 c 0.0158,-0.03084 0.0308,-0.05866 0.0351,-0.06718 0.0523,-0.101655 0.10454,-0.203626 0.15244,-0.307475 0.0948,-0.198067 0.18524,-0.398258 0.29043,-0.591179 0.0761,-0.154295 0.15162,-0.308814 0.23202,-0.460952 0.057,-0.09602 0.11577,-0.192778 0.19327,-0.273886 0.0338,-0.03538 0.0668,-0.05221 0.0946,-0.05478 0.0189,-0.0019 0.035,0.0031 0.0475,0.01291 0.0396,-0.03683 0.08,-0.05501 0.11628,-0.05736 0.10299,-0.0067 0.17182,0.114155 0.0904,0.297141 -0.004,0.0099 -0.009,0.01984 -0.0134,0.02997 -1.9e-4,5.29e-4 -2.5e-4,0.0011 -5.3e-4,0.0016 0.15416,-0.202975 0.29984,-0.41321 0.4811,-0.593762 0.14292,-0.12214 0.30876,-0.265438 0.50643,-0.287838 0.11333,-0.01281 0.24237,-0.05343 0.34262,0.0011 0.36164,0.196249 0.42493,0.277765 0.45268,0.46147 0.0244,-0.04366 0.0462,-0.08845 0.0729,-0.130741 0.0785,-0.124518 0.17269,-0.238324 0.21549,-0.382924 0.0848,-0.286668 0.25137,-0.408246 0.40669,-0.407209 0.0477,2.64e-4 0.0931,0.01556 0.13591,0.03772 0.0315,-0.01291 0.0624,-0.01961 0.092,-0.02016 0.18387,-0.0034 0.3211,0.228565 0.29146,0.659908 -0.0101,0.146907 -0.0823,0.267557 -0.062,0.418063 2.3e-4,0.01265 2.3e-4,0.02514 0,0.03772 0.009,-0.01707 0.019,-0.03333 0.0269,-0.05064 0.0525,-0.11158 -0.0164,0.01868 0.0305,-0.06821 0.0512,-0.09471 0.10951,-0.141044 0.15813,-0.145212 0.0711,-0.0061 0.12078,0.07794 0.0946,0.233061 -0.004,0.02484 -0.005,0.03011 -0.005,0.03101 h -0.001 c -10e-4,0.0021 -0.004,0.0108 -0.0119,0.04031 -0.005,0.02059 -0.008,0.04172 -0.0134,0.06201 -0.0293,0.09557 -0.076,0.18687 -0.1173,0.277503 -0.0117,0.02527 -0.098,0.21203 -0.10698,0.233061 -0.0204,0.04747 -0.0376,0.09637 -0.0584,0.143658 -0.0232,0.05266 -0.0495,0.103955 -0.0739,0.156065 -0.0511,0.109254 -0.10154,0.218797 -0.15244,0.328144 -0.0543,0.100767 -0.091,0.210082 -0.14366,0.31161 -0.013,0.02503 -0.0256,0.05111 -0.0393,0.07596 -0.006,0.01667 -0.012,0.03324 -0.0186,0.04961 h 42.2646 V 69.470225 Z m 2.91041,22.709725 -5.3e-4,5.29e-4 c -0.001,0.0026 -0.004,0.0086 -0.008,0.01913 1.2e-4,0.0035 0.001,0.0059 0.001,0.0093 0.004,-0.01347 0.008,-0.02593 0.008,-0.02894 z m -1.35185,1.790589 c -8e-4,0.0019 -0.001,0.0038 -0.002,0.0057 h 0.0129 c -0.004,-0.0021 -0.007,-0.0036 -0.0108,-0.0057 z" />
    </clipPath>
  </defs>
  <g
     inkscape:groupmode="layer"
     id="layer2"
     inkscape:label="books"
     transform="translate(-36.343518,-45.7969)">
    <g
       id="g68266"
       inkscape:label="book3"
       transform="matrix(0.99805879,0,0,1.2105391,38.307614,-196.14159)"
       inkscape:export-filename="cart.svg"
       inkscape:export-xdpi="96"
       inkscape:export-ydpi="96">
      <path
         style="opacity:1;fill:none;stroke:#000000;stroke-width:0.893438;stroke-linejoin:round"
         d="m 72.382542,206.60915 -1.15107,76.79388 28.04244,-4.52077 0.605303,-78.57543 z"
         id="path66962"
         sodipodi:nodetypes="ccccc" />
      <path
         style="opacity:1;fill:none;stroke:#000000;stroke-width:0.942462;stroke-linejoin:round"
         d="m 99.955343,200.543 17.426047,2.93179 0.10496,77.17274 -18.254678,-1.60653 z"
         id="path66964"
         sodipodi:nodetypes="ccccc" />
      <path
         style="opacity:1;fill:none;stroke:#000000;stroke-width:0.5;stroke-linejoin:round"
         d="m 101.18368,200.62247 c 1.4001,24.76328 -0.60705,52.10378 -0.96674,78.19815"
         id="path67154"
         sodipodi:nodetypes="cc" />
      <path
         style="fill:none;stroke:#000000;stroke-width:0.5;stroke-linejoin:round"
         d="m 101.68512,201.4013 c 1.4773,24.77721 1.57278,52.49701 -0.96674,78.19815"
         id="path67154-6"
         sodipodi:nodetypes="cc" />
      <path
         style="fill:none;stroke:#000000;stroke-width:0.497753;stroke-linejoin:round"
         d="m 103.1448,201.66552 c 1.40042,24.5357 -0.60718,51.62492 -0.96695,77.47948"
         id="path67154-5"
         sodipodi:nodetypes="cc" />
      <path
         style="fill:none;stroke:#000000;stroke-width:0.5;stroke-linejoin:round"
         d="m 105.59882,201.56387 c 1.86238,16.64647 -1.06832,51.72158 -1.42801,77.81595"
         id="path67154-61"
         sodipodi:nodetypes="cc" />
      <path
         style="fill:none;stroke:#000000;stroke-width:0.5;stroke-linejoin:round"
         d="m 104.04485,201.32235 c 1.81105,12.96271 -0.60705,52.10378 -0.96674,78.19815"
         id="path67154-4"
         sodipodi:nodetypes="cc" />
      <path
         style="fill:none;stroke:#000000;stroke-width:0.5;stroke-linejoin:round"
         d="m 106.88951,201.45197 c 0.96296,24.91103 -1.80723,52.50942 -0.96674,78.19815"
         id="path67154-1"
         sodipodi:nodetypes="cc" />
      <path
         style="fill:none;stroke:#000000;stroke-width:0.498863;stroke-linejoin:round"
         d="m 110.87095,202.40666 c 1.40026,24.64798 -0.60712,51.86118 -0.96685,77.83406"
         id="path67154-17"
         sodipodi:nodetypes="cc" />
      <path
         style="fill:none;stroke:#000000;stroke-width:0.5;stroke-linejoin:round"
         d="m 112.22045,202.57052 c 1.4001,24.76328 -1.14013,51.64234 -1.49982,77.73671"
         id="path67154-17-3"
         sodipodi:nodetypes="cc" />
      <path
         style="fill:none;stroke:#000000;stroke-width:0.5;stroke-linejoin:round"
         d="m 113.04275,202.30164 c 1.4001,24.76328 -0.26179,51.83033 -0.62148,77.9247"
         id="path67154-17-8"
         sodipodi:nodetypes="cc" />
      <path
         style="fill:none;stroke:#000000;stroke-width:0.5;stroke-linejoin:round"
         d="m 114.89894,203.13987 c -0.19531,24.00962 -0.99379,51.33469 -1.35343,77.42908"
         id="path67154-17-5"
         sodipodi:nodetypes="cc" />
      <path
         style="fill:none;stroke:#000000;stroke-width:0.4978;stroke-linejoin:round"
         d="m 115.82387,203.19278 c 1.40041,24.54044 -0.60718,51.6349 -0.96695,77.49445"
         id="path67154-17-9"
         sodipodi:nodetypes="cc" />
      <path
         style="fill:none;stroke:#000000;stroke-width:0.498108;stroke-linejoin:round"
         d="m 110.04147,202.40892 c -0.237,23.39001 -1.36233,51.6742 -1.69609,77.58778"
         id="path67154-2"
         sodipodi:nodetypes="cc" />
      <path
         style="fill:none;stroke:#000000;stroke-width:0.498304;stroke-linejoin:round"
         d="m 108.01249,202.27509 c 1.40034,24.59138 -0.60715,51.74209 -0.9669,77.65532"
         id="path67154-0"
         sodipodi:nodetypes="cc" />
      <path
         style="opacity:1;fill:none;stroke:#000000;stroke-width:0.499999;stroke-linejoin:round"
         d="M 74.671514,208.36407 74.282058,223.0541"
         id="path68056" />
      <path
         style="opacity:1;fill:none;stroke:#000000;stroke-width:0.499999;stroke-linejoin:round"
         d="m 76.899142,208.26308 -0.288639,11.09093"
         id="path68058" />
      <path
         style="opacity:1;fill:none;stroke:#000000;stroke-width:0.499999;stroke-linejoin:round"
         d="m 79.712335,208.0145 -0.01796,6.76626"
         id="path68060" />
      <path
         style="opacity:1;fill:none;stroke:#000000;stroke-width:0.499999;stroke-linejoin:round"
         d="m 82.184408,207.50955 c -0.09391,0.26257 -0.02347,4.48469 -0.02347,4.48469"
         id="path68062" />
      <path
         style="opacity:1;fill:#ffeeaa;stroke:none;stroke-width:0.499999;stroke-linejoin:round"
         d="m 84.623337,207.15842 0.114629,2.37557"
         id="path68064" />
      <path
         style="opacity:1;fill:#d3bc5f;stroke:#000000;stroke-width:1.20941;stroke-linejoin:round"
         d="m 271.43449,1056.481 c 0.1626,-6.7972 1.15866,-71.10651 2.21346,-142.90964 1.05481,-71.80314 2.12129,-130.72333 2.36997,-130.93377 0.24868,-0.21044 22.19537,-5.34194 48.77042,-11.40332 26.57504,-6.06138 48.8579,-11.17761 49.51746,-11.3694 1.16838,-0.33974 1.18751,1.13746 0.74419,57.4775 -1.17648,149.5129 -2.13543,234.26343 -2.65602,234.73363 -0.31202,0.2818 -22.45454,4.0166 -49.20558,8.2995 -26.75104,4.2829 -49.40579,7.9394 -50.3439,8.1255 l -1.70565,0.3385 z M 282.129,835.96998 c 0.22024,-4.13585 0.59265,-16.83692 0.82758,-28.22459 0.41512,-20.12256 0.39291,-20.69829 -0.78977,-20.47153 -1.1467,0.21987 -1.24085,1.21123 -1.63203,17.18498 -0.22832,9.32341 -0.58124,21.91948 -0.78426,27.99126 -0.34821,10.41363 -0.30259,11.03961 0.80445,11.03961 1.04882,0 1.21615,-0.79942 1.57403,-7.51973 z m 8.98357,-20.79926 c 0.8211,-28.80034 0.82737,-28.27817 -0.34262,-28.50455 -1.31488,-0.25441 -1.61791,3.46538 -2.16571,26.58462 -0.37207,15.70245 -0.34776,16.15942 0.85974,16.15942 1.18079,0 1.26283,-0.70859 1.64859,-14.23949 z m 11.27657,-16.15942 c 0,-12.69287 -0.0416,-13.11952 -1.27995,-13.11952 -1.23833,0 -1.27996,0.42665 -1.27996,13.11952 0,12.69288 0.0416,13.11953 1.27996,13.11953 1.23833,0 1.27995,-0.42665 1.27995,-13.11953 z m 9.59966,-6.39977 c 0,-8.21303 -0.0632,-8.63969 -1.27996,-8.63969 -1.21675,0 -1.27995,0.42666 -1.27995,8.63969 0,8.21304 0.0632,8.63969 1.27995,8.63969 1.21675,0 1.27996,-0.42665 1.27996,-8.63969 z"
         id="path68189"
         transform="scale(0.26458333)" />
      <path
         style="opacity:1;fill:#ffe6d5;stroke:none;stroke-width:0.855179;stroke-linejoin:round"
         d="m 377.48841,1018.4235 c 0.51009,-78.70556 2.29991,-257.75554 2.57937,-258.035 1.36286,-1.36286 1.72735,3.31568 2.52443,32.40309 1.11943,40.85081 0.46523,81.5193 -2.90886,180.8312 -0.36361,10.70238 -0.88659,28.21541 -1.16216,38.91771 -1.03133,40.0531 -1.26278,41.3715 -1.03278,5.883 z"
         id="path68191"
         transform="scale(0.26458333)" />
      <path
         style="opacity:1;fill:#ffe6d5;stroke:none;stroke-width:0.855179;stroke-linejoin:round"
         d="m 380.18491,1041.0501 c 0.40613,-19.5253 1.13867,-46.00247 1.98442,-71.72637 2.62092,-79.71622 3.12886,-100.75152 3.23444,-133.9495 0.0906,-28.49394 0.38506,-24.11391 1.29288,19.23262 1.31126,62.61025 -1.20909,140.83693 -6.10899,189.61095 l -0.59101,5.8829 z"
         id="path68193"
         transform="scale(0.26458333)" />
      <path
         style="opacity:1;fill:#ffe6d5;stroke:none;stroke-width:0.855179;stroke-linejoin:round"
         d="m 389.46901,881.98504 c -0.1903,-33.83315 -1.78024,-83.77981 -3.65174,-114.71689 -0.19573,-3.2356 -0.33429,-5.90969 -0.30791,-5.94241 0.0264,-0.0327 0.70059,0.0399 1.49823,0.16149 1.31184,0.1999 1.47338,0.39993 1.69253,2.09589 1.19287,9.23134 2.03933,89.46484 1.24436,117.94939 l -0.39783,14.25476 z"
         id="path68195"
         transform="scale(0.26458333)" />
      <path
         style="opacity:1;fill:#ffe6d5;stroke:none;stroke-width:0.855179;stroke-linejoin:round"
         d="m 387.59448,1045.4623 c 9.8e-4,-11.1167 1.90159,-76.79919 3.38823,-117.09272 2.05786,-55.77573 2.31374,-116.78899 0.64403,-153.5637 -0.29622,-6.52399 -0.39737,-12.003 -0.22479,-12.17558 0.66292,-0.66293 1.06399,1.07916 1.57171,6.82682 1.06421,12.04749 1.39583,24.23931 1.39908,51.43609 0.004,34.30049 -0.43087,52.73539 -3.16584,134.17576 -1.09675,32.6587 -2.11206,66.90813 -2.52539,85.18913 -0.17023,7.529 -0.48461,13.6891 -0.69864,13.6891 -0.21403,0 -0.3888,-3.8182 -0.38839,-8.4849 z"
         id="path68197"
         transform="scale(0.26458333)" />
      <path
         style="opacity:1;fill:#ffe6d5;stroke:none;stroke-width:0.855179;stroke-linejoin:round"
         d="m 390.95249,1042.7471 c 0.89853,-34.3724 1.29415,-47.86984 2.31128,-78.85375 2.74318,-83.56353 2.84355,-87.11553 3.3825,-119.69474 0.57228,-34.59362 -0.0147,-62.79641 -1.63302,-78.46976 l -0.29913,-2.89691 1.4978,0.29956 c 0.82378,0.16476 1.59842,0.40019 1.72142,0.52319 0.42033,0.42033 1.35729,13.55631 1.84455,25.86004 1.17212,29.59756 0.53539,59.57057 -3.14202,147.90549 -2.81078,67.51748 -2.94814,71.25338 -3.88093,105.55308 -0.28677,10.5449 -0.33356,10.9739 -1.19683,10.9739 -0.87986,0 -0.89236,-0.231 -0.60562,-11.2001 z"
         id="path68199"
         transform="scale(0.26458333)" />
      <path
         style="opacity:1;fill:#ffe6d5;stroke:none;stroke-width:0.855179;stroke-linejoin:round"
         d="m 396.27394,1054.5226 -1.50176,-0.1848 0.26679,-8.9065 c 0.14674,-4.8986 0.47432,-16.1358 0.72796,-24.9714 0.47419,-16.5185 1.41719,-40.79752 3.36587,-86.65994 2.93456,-69.06488 3.60183,-95.00954 3.24138,-126.03018 -0.24467,-21.05628 -0.46509,-27.06103 -1.46594,-39.93596 -0.24985,-3.21394 -0.19029,-3.95835 0.31622,-3.95273 2.0418,0.0227 1.97182,-1.03432 2.14451,32.3869 0.17659,34.17516 -0.16475,51.48757 -2.20303,111.73764 -2.28838,67.64248 -2.42219,73.74898 -2.42699,110.75727 -0.003,25.1436 -0.15005,36.0674 -0.48397,36.017 -0.2636,-0.04 -1.15507,-0.1556 -1.98104,-0.2573 z"
         id="path68201"
         transform="scale(0.26458333)" />
      <path
         style="opacity:1;fill:#ffe6d5;stroke:none;stroke-width:0.855179;stroke-linejoin:round"
         d="m 406.92021,1055.396 -1.26373,-0.155 0.25503,-9.1319 c 0.14026,-5.0225 0.45964,-17.1756 0.70972,-27.0068 0.25008,-9.8313 0.85272,-29.88978 1.33919,-44.57445 2.76103,-83.34404 3.16051,-100.54651 3.16301,-136.20497 0.002,-26.40478 -0.46946,-49.85518 -1.32349,-65.85061 -0.20598,-3.85783 -0.34838,-7.04477 -0.31645,-7.08208 0.0319,-0.0373 1.22898,0.13567 2.66011,0.38438 l 2.60206,0.45221 -0.005,2.55708 c -0.0246,13.57744 -1.23162,68.037 -3.1659,142.84203 -1.8778,72.62126 -2.17291,85.10047 -2.7503,116.30071 -0.28097,15.1825 -0.5401,27.609 -0.57586,27.6144 -0.0358,0.01 -0.6337,-0.06 -1.32875,-0.145 z"
         id="path68205"
         transform="scale(0.26458333)" />
      <path
         style="opacity:1;fill:#ffe6d5;stroke:none;stroke-width:0.855179;stroke-linejoin:round"
         d="m 402.44948,1054.9689 c -0.48583,-0.1088 -0.8688,-0.8334 -1.07009,-2.0248 -0.50243,-2.9739 -0.34696,-65.86735 0.21117,-85.4305 0.28049,-9.83126 1.1092,-35.59165 1.84159,-57.24531 2.05141,-60.65213 2.36217,-76.57019 2.19319,-112.34121 -0.14478,-30.64805 -0.0999,-33.14808 0.59472,-33.14797 0.61669,1e-4 0.8015,0.66904 1.03142,3.73351 1.35227,18.02319 1.96871,74.6439 1.20337,110.53096 -0.47412,22.23174 -0.94756,37.97224 -3.43,114.03809 -0.36552,11.20013 -0.88969,29.73073 -1.16482,41.17903 -0.27512,11.4482 -0.53481,20.8291 -0.57708,20.8463 -0.0423,0.017 -0.41733,-0.045 -0.83347,-0.1381 z"
         id="path68207"
         transform="scale(0.26458333)" />
      <path
         style="opacity:1;fill:#ffe6d5;stroke:none;stroke-width:0.855179;stroke-linejoin:round"
         d="m 412.1436,1055.8825 c -1.39692,-0.1733 -1.4705,-0.2776 -1.4662,-2.0771 0.0256,-10.7037 1.38992,-71.4176 2.94585,-131.09247 1.91916,-73.60622 2.43942,-95.71235 2.97142,-126.25646 0.28395,-16.30246 0.595,-29.7257 0.69123,-29.8294 0.0962,-0.10371 0.27996,-0.0835 0.40831,0.0448 0.79787,0.79787 2.029,44.24216 2.02384,71.41756 -0.006,30.54001 -0.63969,57.31876 -3.16005,133.49696 -1.01365,30.63771 -1.6451,52.23951 -2.08672,71.38691 -0.16792,7.2801 -0.42942,13.204 -0.58113,13.1642 -0.1517,-0.04 -0.93765,-0.1546 -1.74655,-0.255 z"
         id="path68209"
         transform="scale(0.26458333)" />
      <path
         style="opacity:1;fill:#ffe6d5;stroke:none;stroke-width:0.855179;stroke-linejoin:round"
         d="m 416.55955,1054.5129 c 0.002,-0.9333 0.20657,-9.9444 0.45444,-20.0245 0.4508,-18.3329 0.84138,-31.0433 2.92025,-95.03179 1.75148,-53.91125 2.20086,-80.92438 1.90463,-114.49061 -0.24564,-27.83494 -0.80014,-49.37968 -1.4299,-55.55822 l -0.24316,-2.3857 1.24958,0.30585 c 0.68727,0.16821 1.37116,0.49067 1.51977,0.71656 0.38764,0.58924 0.78659,11.10424 1.34413,35.42623 0.73565,32.0925 -0.0802,70.2362 -2.96676,138.70109 -2.54733,60.41959 -3.213,78.49519 -3.68719,100.12269 -0.16781,7.6535 -0.4771,13.9154 -0.68733,13.9154 -0.21022,0 -0.38053,-0.7637 -0.37846,-1.697 z"
         id="path68211"
         transform="scale(0.26458333)" />
      <path
         style="opacity:1;fill:#ffe6d5;stroke:none;stroke-width:0.855179;stroke-linejoin:round"
         d="m 426.25465,1045.0097 c 0.68682,-28.7788 1.22758,-49.89847 2.05957,-80.43755 1.83806,-67.4684 1.9858,-76.11232 1.98008,-115.84822 -0.005,-36.34329 -0.24787,-49.56954 -1.35427,-73.82319 l -0.29177,-6.39592 2.21248,0.43713 2.21247,0.43713 -0.30024,26.54899 c -0.33341,29.48275 -0.8047,55.76247 -2.41979,134.93043 -0.6017,29.49378 -1.31491,68.08346 -1.58492,85.7548 -0.27002,17.6714 -0.60179,34.0135 -0.73729,36.3157 -0.22418,3.8093 -0.32819,4.186 -1.15578,4.186 -0.89543,0 -0.90499,-0.1865 -0.62054,-12.1053 z"
         id="path68217"
         transform="scale(0.26458333)" />
      <path
         style="opacity:1;fill:#ffe6d5;stroke:none;stroke-width:0.855179;stroke-linejoin:round"
         d="m 430.5853,1047.7249 c 10e-4,-10.179 0.14202,-17.9884 2.04025,-113.01987 1.83219,-91.72578 1.99916,-101.08929 2.25942,-126.70899 0.3111,-30.6237 0.57776,-38.23896 1.339,-38.23896 0.59535,0 0.71268,2.03244 1.60655,27.83072 0.55583,16.04195 0.55426,69.3704 -0.003,92.54282 -0.46607,19.3903 -0.69554,26.92687 -2.48701,81.68204 -1.57875,48.25304 -2.03723,64.55384 -2.04286,72.63144 -0.003,3.8578 -0.13471,8.3888 -0.29338,10.0688 -0.26679,2.8249 -0.36864,3.0546 -1.35438,3.0546 H 430.584 l 10e-4,-9.8426 z"
         id="path68219"
         transform="scale(0.26458333)" />
      <path
         style="opacity:1;fill:#ffe6d5;stroke:none;stroke-width:0.855179;stroke-linejoin:round"
         d="m 437.37226,1058.1452 -2.03639,-0.1642 0.10552,-6.2028 c 0.24631,-14.4792 1.12024,-46.4864 1.93628,-70.9149 2.84635,-85.20658 3.17773,-99.84641 3.17026,-140.05868 -0.006,-30.40643 -0.26859,-44.67065 -1.1815,-64.09482 l -0.30065,-6.39697 1.11704,0.21353 1.11704,0.21354 0.29816,15.91288 c 0.164,8.75208 0.29848,73.49193 0.29887,143.86633 l 6.9e-4,127.95349 -1.24446,-0.082 c -0.68445,-0.045 -2.16084,-0.1555 -3.28086,-0.2458 z"
         id="path68221"
         transform="scale(0.26458333)" />
      <path
         style="opacity:1;fill:#ffe6d5;stroke:none;stroke-width:0.855179;stroke-linejoin:round"
         d="m 419.89852,1044.1047 c 0.51727,-21.2708 1.13363,-38.3146 3.21977,-89.03573 2.73595,-66.51979 2.84556,-69.76097 3.46155,-102.35471 0.50842,-26.9018 0.23277,-54.27866 -0.80109,-79.56319 -0.14098,-3.44806 -0.0681,-5.18259 0.19958,-4.75158 0.58678,0.9447 1.38269,22.3592 1.9258,51.81492 0.3155,17.11085 0.30941,35.24309 -0.0195,58.01931 -0.44804,31.0276 -0.76266,44.64102 -2.50261,108.28623 -0.93624,34.24625 -1.57583,60.92485 -1.58124,65.95655 l -0.005,4.1859 h -2.10158 -2.10159 z"
         id="path68223"
         transform="scale(0.26458333)" />
      <path
         style="opacity:1;fill:#ffe6d5;stroke:none;stroke-width:0.855179;stroke-linejoin:round"
         d="m 382.42872,1053.1054 c -0.13231,-0.214 0.14969,-4.6432 0.62667,-9.8425 0.47698,-5.1994 1.18496,-13.8316 1.57329,-19.1828 0.38833,-5.3512 0.78505,-10.4422 0.88159,-11.3133 0.2717,-2.4515 -0.16815,33.7373 -0.45514,37.447 -0.23769,3.0725 -0.32152,3.2809 -1.31982,3.2809 -0.58631,0 -1.17427,-0.1752 -1.30659,-0.3893 z"
         id="path68225"
         transform="scale(0.26458333)" />
      <path
         style="opacity:1;fill:#ffe6d5;stroke:none;stroke-width:0.213795;stroke-linejoin:round"
         d="m 377.04795,1052.8497 c -0.14885,-0.3879 0.75659,-105.5083 0.91011,-105.66181 0.0464,-0.0464 0.056,1.61872 0.0213,3.70034 -0.0347,2.08163 -0.11437,10.58124 -0.17693,18.88804 -0.0626,8.30679 -0.16206,21.2888 -0.22109,28.84892 -0.19028,24.36751 -0.26296,43.70531 -0.16732,44.51781 l 0.0932,0.792 0.0834,-0.5308 c 0.0459,-0.2919 0.16729,-3.0156 0.26984,-6.0526 0.10256,-3.037 0.23056,-6.7946 0.28447,-8.3502 l 0.098,-2.8283 -0.0507,3.5071 c -0.0279,1.9289 -0.098,5.849 -0.15588,8.7112 -0.0579,2.8623 -0.14025,7.3296 -0.18309,9.9275 l -0.0779,4.7233 h -0.32674 c -0.20329,0 -0.35467,-0.073 -0.40063,-0.1925 z"
         id="path68227"
         transform="scale(0.26458333)" />
    </g>
    <g
       id="g66896"
       inkscape:label="book2"
       transform="rotate(-6.1546242,-1238.6675,340.30411)">
      <path
         style="opacity:1;fill:none;stroke:#000000;stroke-width:0.942461;stroke-linejoin:round"
         d="m 65.106581,216.56774 -0.138107,68.0573 24.317475,-2.56357 -1.176652,-70.1703 z"
         id="path62601"
         sodipodi:nodetypes="ccccc" />
      <path
         style="opacity:1;fill:none;stroke:#000000;stroke-width:0.942462;stroke-linejoin:round"
         d="m 88.545706,211.87032 36.012174,-3.59366 0.47508,68.36492 -35.89064,5.21105 z"
         id="path64535"
         sodipodi:nodetypes="ccccc" />
      <path
         style="opacity:1;fill:none;stroke:#000000;stroke-width:0.942462;stroke-linejoin:round"
         d="m 74.85872,217.16112 10.773275,-2.06429"
         id="path65993" />
      <path
         style="opacity:1;fill:none;stroke:#000000;stroke-width:0.942462;stroke-linejoin:round"
         d="m 77.17802,219.90272 8.294796,-1.31174"
         id="path65995" />
      <path
         style="opacity:1;fill:none;stroke:#000000;stroke-width:0.942462;stroke-linejoin:round"
         d="m 80.213132,222.74539 5.415933,-0.73717"
         id="path65997" />
      <path
         style="opacity:1;fill:none;stroke:#000000;stroke-width:0.942462;stroke-linejoin:round"
         d="m 81.929902,225.26342 3.798771,-0.44823"
         id="path65999" />
      <path
         style="opacity:1;fill:none;stroke:#000000;stroke-width:0.942462;stroke-linejoin:round"
         d="m 83.991394,227.52712 2.013641,-0.25707"
         id="path66001" />
      <path
         style="opacity:1;fill:#aa0000;stroke:#000000;stroke-width:1.61195;stroke-linejoin:round"
         d="m 339.388,1059.9738 c -0.006,-1.6968 -0.20596,-12.9616 -0.44419,-25.0329 -0.60543,-30.6791 -2.34705,-231.75994 -2.01026,-232.09806 0.15184,-0.15245 29.88914,-3.23954 66.08289,-6.86019 l 65.8068,-6.58301 0.0121,8.39314 c 0.007,4.61622 0.39952,61.84595 0.87299,127.17717 0.47347,65.33121 0.82438,118.81045 0.7798,118.84265 -0.0446,0.032 -29.20149,4.2743 -64.79314,9.4268 -35.59165,5.1525 -65.06846,9.4697 -65.50402,9.5938 -0.69813,0.1989 -0.79324,-0.1398 -0.803,-2.8594 z"
         id="path66883"
         transform="scale(0.26458333)" />
      <path
         style="opacity:1;fill:#aa0000;stroke:#000000;stroke-width:1.61195;stroke-linejoin:round"
         d="m 247.6862,998.39892 c 0.16559,-41.25396 0.30115,-98.22444 0.30123,-126.60107 l 1.5e-4,-51.59387 41.51982,-8.44195 c 22.8359,-4.64307 41.5365,-8.40806 41.55689,-8.36663 0.0204,0.0414 0.78497,46.60693 1.69909,103.4789 1.86373,115.9533 2.3781,157.4812 1.95056,157.4812 -0.15991,0 -19.56601,2.0364 -43.12467,4.5253 -23.55865,2.4889 -43.14222,4.5253 -43.51903,4.5253 -0.61027,0 -0.65223,-8.1956 -0.38404,-75.00718 z m 74.62978,-137.02913 3.05459,-0.30666 -0.007,-1.41802 c -0.0115,-2.34726 -0.47791,-2.68772 -3.21847,-2.34921 -4.95226,0.61169 -4.92019,0.59556 -4.92019,2.4756 0,1.92319 0.30058,2.40156 1.32487,2.10852 0.39134,-0.11197 2.08609,-0.34157 3.76612,-0.51023 z M 318.53,852.35333 c 3.08223,-0.362 5.69885,-0.75297 5.81471,-0.86883 0.11586,-0.11586 0.0698,-1.04463 -0.10246,-2.06392 -0.30106,-1.78197 -0.36806,-1.84405 -1.74192,-1.61384 -0.78585,0.13168 -4.06642,0.55191 -7.29015,0.93383 -3.22373,0.38193 -5.88923,0.73807 -5.92333,0.79142 -0.0341,0.0534 0.0284,0.96147 0.13888,2.01805 l 0.20086,1.92104 1.64967,-0.22979 c 0.90733,-0.12638 4.1715,-0.52596 7.25374,-0.88796 z m -3.85992,-10.02112 9.43718,-1.26058 -0.23536,-1.75474 c -0.12945,-0.96511 -0.34132,-1.86071 -0.47083,-1.99022 -0.25593,-0.25592 -20.20702,2.42449 -20.54239,2.75985 -0.11251,0.11252 -0.0618,1.04973 0.11273,2.08269 0.27477,1.62631 0.44764,1.84764 1.28939,1.65084 0.53465,-0.125 5.21883,-0.79452 10.40928,-1.48784 z m -6.9741,-11.67925 c 8.52618,-1.35224 15.59042,-2.54689 15.69832,-2.65478 0.10788,-0.10789 0.0632,-1.02793 -0.0994,-2.04453 -0.27116,-1.69577 -0.39382,-1.83069 -1.48573,-1.63419 -2.49926,0.44977 -29.64027,4.71932 -30.00014,4.71932 -0.43756,0 -0.50865,2.30164 -0.10367,3.35698 0.15107,0.3937 0.32278,0.71581 0.38159,0.71581 0.0588,0 7.08286,-1.10637 15.60904,-2.45861 z m -6.22936,-11.35282 c 9.78712,-1.87176 18.88808,-3.62216 20.22434,-3.88977 l 2.42958,-0.48658 -0.242,-1.80425 c -0.1331,-0.99234 -0.31993,-1.88218 -0.41517,-1.97742 -0.15821,-0.15821 -40.69024,7.47084 -40.98522,7.71435 -0.28487,0.23516 0.49616,3.84687 0.83189,3.84687 0.199,0 8.36946,-1.53144 18.15658,-3.4032 z"
         id="path66885"
         transform="scale(0.26458333)" />
    </g>
    <g
       id="g61606"
       inkscape:label="book1"
       transform="matrix(0.99681769,0,0,1.3011508,0.80953157,-279.20008)">
      <path
         style="opacity:1;fill:#a05a2c;stroke:#000000;stroke-width:1.466;stroke-linejoin:round"
         d="m 72.680369,272.27796 c -1.375524,0.20508 -1.640684,51.79961 -1.640684,51.79961 0,0 39.138875,0.7582 38.321295,1.21498 -0.81758,0.45678 5.7783,-53.76347 5.7783,-53.76347 z"
         id="path61277" />
      <path
         style="fill:none;stroke:#000000;stroke-width:1.466;stroke-linejoin:round"
         d="m 114.9828,271.59143 14.06086,2.20351 -7.1704,52.33409 -12.81059,-2.42996"
         id="path61279"
         sodipodi:nodetypes="cccc" />
      <path
         style="fill:none;stroke:#000000;stroke-width:1.466;stroke-linejoin:round"
         d="m 74.815865,274.80211 c -0.298757,1.60939 -0.0585,3.2549 -0.149154,4.88165 -0.02821,0.50617 -0.08286,0.96842 -0.08286,1.47289"
         id="path61350" />
      <path
         style="fill:none;stroke:#000000;stroke-width:1.466;stroke-linejoin:round"
         d="m 77.669108,274.89378 c 0,1.1549 0,2.3098 0,3.4647"
         id="path61352" />
      <path
         style="fill:none;stroke:#000000;stroke-width:1.466;stroke-linejoin:round"
         d="m 80.461584,275.03516 -0.06767,2.24584"
         id="path61358"
         sodipodi:nodetypes="cc" />
      <path
         style="fill:none;stroke:#000000;stroke-width:1.466;stroke-linejoin:round"
         d="m 82.53807,274.79584 c 0,0.5645 0,1.12901 0,1.69351"
         id="path61358-6" />
      <path
         style="fill:none;stroke:#000000;stroke-width:0.443481;stroke-linejoin:round"
         d="m 110.0959,324.39665 c 1.28818,-8.07973 5.73275,-34.15408 6.17604,-52.65718"
         id="path61389"
         sodipodi:nodetypes="cc" />
      <path
         style="fill:none;stroke:#000000;stroke-width:0.443481;stroke-linejoin:round"
         d="m 111.29744,323.53582 c 0.91198,-8.37043 5.41352,-33.73044 6.87364,-51.44781"
         id="path61389-3"
         sodipodi:nodetypes="cc" />
      <path
         style="fill:none;stroke:#000000;stroke-width:0.443481;stroke-linejoin:round"
         d="m 112.71204,324.85889 c 0.91198,-8.37043 4.71592,-35.34383 6.17604,-53.0612"
         id="path61389-2"
         sodipodi:nodetypes="cc" />
      <path
         style="fill:none;stroke:#000000;stroke-width:0.443481;stroke-linejoin:round"
         d="m 113.66989,325.25935 c 0.9225,-8.36508 6.02501,-34.56671 6.43568,-52.81727"
         id="path61389-31"
         sodipodi:nodetypes="cc" />
      <path
         style="fill:none;stroke:#000000;stroke-width:0.443481;stroke-linejoin:round"
         d="m 115.2465,324.44842 c 0.91198,-8.37043 4.69241,-34.58392 6.15253,-52.30129"
         id="path61389-35"
         sodipodi:nodetypes="cc" />
      <path
         style="fill:none;stroke:#000000;stroke-width:0.443481;stroke-linejoin:round"
         d="m 116.25256,325.48986 c 0.91454,-8.37621 6.86089,-40.19054 6.17604,-53.0612"
         id="path61389-6"
         sodipodi:nodetypes="cc" />
      <path
         style="fill:none;stroke:#000000;stroke-width:0.443481;stroke-linejoin:round"
         d="m 117.67713,326.00819 c 2.32161,-6.77638 4.71753,-35.34201 6.17604,-53.0612"
         id="path61389-5"
         sodipodi:nodetypes="cc" />
      <path
         style="fill:none;stroke:#000000;stroke-width:0.443481;stroke-linejoin:round"
         d="m 118.47864,326.38668 c 2.32162,-6.77638 6.35821,-35.78325 6.81408,-53.16373"
         id="path61389-5-5"
         sodipodi:nodetypes="cc" />
      <path
         style="fill:none;stroke:#000000;stroke-width:0.443481;stroke-linejoin:round"
         d="m 120.41444,326.37038 c 2.32187,-6.77774 7.24016,-48.73203 6.17604,-53.0612"
         id="path61389-5-2"
         sodipodi:nodetypes="cc" />
      <path
         style="opacity:1;fill:#e9c6af;stroke:none;stroke-width:0.129272;stroke-linejoin:round"
         d="m 110.24256,321.11427 c 0.20491,-3.59497 2.00667,-19.87816 4.78967,-43.28596 0.76816,-6.46094 0.7994,-5.90783 0.90263,-5.90783 0.25106,0 -0.24929,7.56069 -0.86362,13.96919 -0.73312,7.64757 -1.93325,17.10942 -3.39645,26.77771 -0.50303,3.3238 -1.39568,8.96685 -1.43598,9.07778 -0.021,0.0578 -0.0193,-0.22607 0.004,-0.63089 z"
         id="path62505"
         sodipodi:nodetypes="cssssscc" />
      <path
         style="opacity:1;fill:#e9c6af;stroke:none;stroke-width:0.129272;stroke-linejoin:round"
         d="m 110.72489,323.23785 c -0.14606,-0.0232 -0.18118,-0.0664 -0.14913,-0.18323 0.10626,-0.38731 1.8209,-11.52039 2.41489,-15.6797 1.93715,-13.56456 3.21331,-25.97124 3.44296,-33.47213 0.026,-0.8482 0.0668,-1.70345 0.0908,-1.90055 l 0.004,0.0976 0.63106,-0.0902 0.65358,0.0841 0.0306,0.23838 c -0.0347,0.6161 -0.50588,5.18119 -0.7807,7.56408 -0.82772,7.17686 -1.70762,13.60609 -3.86147,28.21474 -1.30963,8.88268 -1.72669,11.80115 -1.94334,13.59915 -0.16215,1.34571 -0.20444,1.58018 -0.28278,1.56767 -0.0329,-0.005 -0.14577,-0.0232 -0.25085,-0.0399 z"
         id="path62507"
         sodipodi:nodetypes="sssccccccssscss" />
      <path
         style="opacity:1;fill:#e9c6af;stroke:none;stroke-width:0.129272;stroke-linejoin:round"
         d="m 111.96282,323.47737 c -0.37943,-0.0681 -0.39417,-0.0799 -0.35979,-0.28827 0.0197,-0.11947 0.11294,-0.8481 0.20714,-1.61919 0.21548,-1.76355 0.65922,-4.85726 1.9908,-13.87954 2.52394,-17.10126 3.67463,-25.87589 4.44248,-33.87636 0.14508,-1.51155 0.19483,-1.78164 0.31058,-1.68601 0.0427,0.0353 -0.12779,2.04541 -0.47162,5.56012 -0.7335,7.49794 -1.83969,16.95694 -3.6444,31.16307 -0.46746,3.67963 -1.06083,8.39363 -1.31861,10.47556 -0.25777,2.08194 -0.48844,3.88785 -0.51259,4.01316 -0.0471,0.24439 -0.0478,0.24453 -0.64399,0.13746 z"
         id="path62509" />
      <path
         style="opacity:1;fill:#e9c6af;stroke:none;stroke-width:0.129272;stroke-linejoin:round"
         d="m 113.2705,323.72854 c -0.14457,-0.023 -0.18175,-0.0676 -0.15284,-0.18323 0.021,-0.084 0.06,-0.35787 0.0866,-0.60847 0.053,-0.49926 0.92805,-7.46263 1.99072,-15.84231 1.75811,-13.86355 2.89563,-23.7492 3.56522,-30.98364 0.14096,-1.52289 0.28013,-3.01442 0.30927,-3.3145 0.0448,-0.46172 0.0744,-0.54037 0.19239,-0.51155 0.0767,0.0187 0.24299,0.0545 0.36959,0.0794 l 0.23018,0.0453 -0.0404,0.88681 c -0.22117,4.85625 -0.33643,6.61132 -0.67744,10.3151 -0.69307,7.52739 -1.7102,15.14185 -3.89996,29.19611 -0.93296,5.98788 -1.65504,10.75018 -1.65504,10.91544 0,0.0303 -0.0286,0.0507 -0.0636,0.0455 -0.035,-0.005 -0.14961,-0.0232 -0.25469,-0.0399 z"
         id="path62511" />
      <path
         style="opacity:1;fill:#e9c6af;stroke:none;stroke-width:0.129272;stroke-linejoin:round"
         d="m 114.56465,323.958 -0.42427,-0.0783 0.0254,-0.31369 c 0.0429,-0.53041 0.58305,-4.14887 1.37586,-9.21622 2.3607,-15.08881 3.39477,-22.75913 4.11089,-30.49295 0.3471,-3.74864 0.45178,-5.30026 0.68862,-10.20767 l 0.0528,-1.09484 0.33397,0.07 0.33396,0.07 -0.0466,0.39392 c -0.0256,0.21666 -0.14308,1.43489 -0.26102,2.70718 -0.65266,7.04046 -1.86836,17.58493 -3.59645,31.19393 -1.34976,10.62963 -1.71521,13.52856 -1.91734,15.20963 -0.12042,1.00142 -0.22628,1.8245 -0.23525,1.82905 -0.009,0.005 -0.20723,-0.027 -0.44058,-0.0701 z"
         id="path62515" />
      <path
         style="opacity:1;fill:#e9c6af;stroke:none;stroke-width:0.129272;stroke-linejoin:round"
         d="m 115.87988,324.21299 c -0.11668,-0.0144 -0.23996,-0.0481 -0.27397,-0.0749 -0.0712,-0.056 0.19479,-2.26488 1.71498,-14.23961 2.25244,-17.74291 3.23799,-26.25287 4.07487,-35.18551 0.0955,-1.01946 0.18222,-1.85853 0.1927,-1.86459 0.0105,-0.006 0.1399,0.016 0.28763,0.049 0.26407,0.059 0.2696,0.069 0.32931,0.59533 0.10391,0.91606 -0.0674,5.18997 -0.34795,8.68173 -0.57386,7.14206 -1.59562,14.90962 -4.11252,31.26403 -0.60521,3.93254 -1.21624,7.9685 -1.35785,8.96879 -0.14161,1.0003 -0.26593,1.82171 -0.27627,1.82536 -0.0103,0.004 -0.11426,-0.005 -0.23093,-0.0196 z"
         id="path62517" />
      <path
         style="opacity:1;fill:#e9c6af;stroke:none;stroke-width:0.129272;stroke-linejoin:round"
         d="m 117.138,324.45316 c -0.21809,-0.0436 -0.41617,-0.0957 -0.44019,-0.11582 -0.0592,-0.0495 0.33566,-2.76572 1.59586,-10.97666 3.2466,-21.15354 4.26389,-29.81002 4.4322,-37.7153 l 0.054,-2.53342 0.34723,0.0827 c 0.28756,0.0684 0.35197,0.11641 0.37482,0.27908 0.03,0.21371 -0.0717,1.47795 -0.83858,10.41816 -1.70658,19.89617 -3.12202,32.30822 -4.41562,38.72072 -0.36216,1.79525 -0.4045,1.93805 -0.57168,1.92821 -0.0778,-0.005 -0.3199,-0.044 -0.53799,-0.0876 z"
         id="path62519" />
      <path
         style="opacity:1;fill:#e9c6af;stroke:none;stroke-width:0.129272;stroke-linejoin:round"
         d="m 118.48184,324.70417 c -0.1114,-0.0196 -0.14318,-0.0706 -0.11155,-0.17889 0.37008,-1.26719 1.09347,-5.4825 1.66203,-9.68484 1.06029,-7.83686 2.52286,-22.65637 3.79116,-38.4141 0.12723,-1.58073 0.25829,-2.90014 0.29125,-2.93202 0.0568,-0.055 0.74075,0.0707 0.85647,0.15741 0.057,0.0427 -0.0279,2.39238 -0.18131,5.01777 -0.84285,14.42677 -3.48782,34.91995 -5.77675,44.75803 -0.28913,1.24273 -0.31883,1.31408 -0.5313,1.27664 z"
         id="path62521" />
      <path
         style="opacity:1;fill:#e9c6af;stroke:none;stroke-width:0.129272;stroke-linejoin:round"
         d="m 120.16499,325.01928 c -0.18668,-0.0345 -0.47591,-0.0911 -0.64273,-0.12566 l -0.3033,-0.0629 0.23612,-0.96446 c 2.41963,-9.88292 5.34414,-33.28877 6.01446,-48.13571 0.0469,-1.03811 0.0993,-1.89912 0.11654,-1.91335 0.0172,-0.0142 0.20517,0.0103 0.41765,0.0545 l 0.38634,0.0804 0.0607,0.46606 c 0.0748,0.57472 -0.0112,3.46454 -0.17974,6.03891 -0.86354,13.18986 -3.86536,36.69315 -5.62291,44.02559 l -0.14368,0.59944 z"
         id="path62523" />
      <path
         style="opacity:1;fill:#e9c6af;stroke:none;stroke-width:0.129272;stroke-linejoin:round"
         d="m 126.07387,289.39189 c -0.006,-0.0786 0.0442,-0.69372 0.1123,-1.36693 0.13568,-1.34081 0.50269,-5.81672 0.64066,-7.81329 0.048,-0.69398 0.1116,-2.34217 0.14143,-3.66266 0.0298,-1.32048 0.087,-2.40088 0.12697,-2.40088 0.04,0 0.30262,0.0528 0.58357,0.11733 l 0.51083,0.11733 -0.0481,0.28574 c -0.0265,0.15715 -0.48597,3.50327 -1.02109,7.4358 -0.53511,3.93254 -0.98689,7.21316 -1.00395,7.29027 -0.0304,0.13729 -0.0312,0.13724 -0.0426,-0.003 z"
         id="path62525" />
    </g>
  </g>
  <g
     inkscape:label="Layer 1"
     inkscape:groupmode="layer"
     id="layer1"
     transform="translate(-36.343518,-45.7969)">
    <g
       id="g61220"
       inkscape:label="cart">
      <path
         style="fill:none;stroke:#000000;stroke-width:1.30707;stroke-linejoin:round"
         d="m 39.147881,93.300284 c 0.669246,0.354029 126.722309,0.05181 126.722309,0.05181 2.84053,1.543233 2.8162,1.986857 2.33868,4.483885 l -10.46078,44.925291 c -0.62668,1.97876 -4.08192,3.84956 -6.84778,4.19013 l -95.378056,-0.0139 c -2.602689,-0.50175 -5.350915,-1.35316 -7.082381,-3.66241 L 37.110355,97.380293 c -0.421213,-2.065414 0.336078,-3.434979 2.037526,-4.080009 z"
         id="path59613"
         sodipodi:nodetypes="ccccccccc"
         clip-path="url(#clipPath60904)" />
      <path
         style="fill:none;stroke:#000000;stroke-width:1.466;stroke-linejoin:round"
         d="m 43.884049,98.2986 c 2.464064,-0.521144 15.791354,-1.640163 15.991943,0.06592 0.270394,2.2998 2.666354,16.70857 1.171858,17.156 -2.984799,0.8936 -14.266166,0.13892 -14.070099,-0.43507 0.231293,-0.67712 -4.660098,-16.455561 -3.093702,-16.78685 z"
         id="path59617"
         sodipodi:nodetypes="sssss" />
      <path
         style="fill:none;stroke:#000000;stroke-width:1.466;stroke-linejoin:round"
         d="m 64.446687,98.484498 c 0,-0.201254 16.120232,-1.408314 15.991943,0.0659 -0.144758,1.663462 2.10007,17.023022 1.171858,17.156002 -3.227186,0.46235 -17.367667,-0.13719 -16.713423,-0.17094 0.753054,-0.0389 -0.450378,-16.611434 -0.450378,-17.050982 z"
         id="path59617-4"
         sodipodi:nodetypes="ssssss" />
      <path
         style="fill:none;stroke:#000000;stroke-width:1.466;stroke-linejoin:round"
         d="m 83.949766,98.504395 c 2.464064,-0.52114 16.501214,-1.419538 16.701804,0.286522 0.2704,2.299793 1.9565,16.487943 0.462,16.935373 -2.984803,0.8936 -16.40403,0.54598 -16.207963,-0.028 C 85.1369,115.02116 82.38337,98.835665 83.949766,98.504375 Z"
         id="path59617-8"
         sodipodi:nodetypes="ssssss" />
      <path
         style="fill:none;stroke:#000000;stroke-width:1.466;stroke-linejoin:round"
         d="m 104.84218,98.561122 c 2.46406,-0.52114 15.79135,-1.64016 15.99194,0.0659 0.27039,2.299808 0.57545,16.736548 -0.91904,17.183978 -2.9848,0.8936 -14.72192,0.17776 -14.52585,-0.39623 0.23129,-0.67712 -2.11345,-16.522378 -0.54705,-16.853668 z"
         id="path59617-1"
         sodipodi:nodetypes="ssssss" />
      <path
         style="fill:none;stroke:#000000;stroke-width:1.466;stroke-linejoin:round"
         d="m 145.01356,98.61895 c 2.46406,-0.52114 17.61433,-1.076175 17.81492,0.629885 0.27039,2.299805 -2.20664,16.887665 -3.764,16.978885 -2.9848,0.17482 -14.06454,0.0788 -13.86847,-0.23931 0.37541,-0.60915 -1.74885,-17.03819 -0.18245,-17.36948 z"
         id="path59617-1-4"
         sodipodi:nodetypes="ssssss"
         clip-path="url(#clipPath60882)" />
      <path
         style="fill:none;stroke:#000000;stroke-width:1.466;stroke-linejoin:round"
         d="m 125.24092,98.477223 c 2.46406,-0.52114 15.77359,-1.095588 15.7544,0.622117 -0.0272,2.43763 0.91814,17.00177 0.48962,16.95558 -3.09775,-0.33392 -18.45903,0.445 -18.26296,-0.12899 0.23129,-0.67712 0.45254,-17.117437 2.01894,-17.448727 z"
         id="path59617-9"
         sodipodi:nodetypes="ssssss" />
      <path
         style="fill:none;stroke:#000000;stroke-width:1.466;stroke-linejoin:round"
         d="m 47.20379,120.54416 c -2.336264,-0.94078 17.628146,-0.66911 17.828735,1.03695 0.270395,2.2998 3.887199,19.64813 2.392703,20.09556 -2.984799,0.8936 -15.603756,0.10543 -16.020137,-0.33564 -0.801548,-0.84905 -4.316696,-20.84334 -3.977572,-20.70678 z"
         id="path59617-87"
         sodipodi:nodetypes="ssssss" />
      <path
         style="fill:none;stroke:#000000;stroke-width:1.466;stroke-linejoin:round"
         d="m 68.373789,120.93605 c 1.099063,-0.45062 17.064325,-0.37953 17.635389,0.37353 1.399198,1.84511 3.332019,20.05364 1.837523,20.50107 -2.984799,0.8936 -16.939873,0.25389 -16.743806,-0.3201 0.231293,-0.67712 -4.343055,-19.89277 -2.861686,-20.50014 z"
         id="path59617-0"
         sodipodi:nodetypes="ssssss" />
      <path
         style="fill:none;stroke:#000000;stroke-width:1.466;stroke-linejoin:round"
         d="m 89.43846,121.60093 c 0.331323,-0.18176 17.87667,-1.15284 17.90055,0.28963 0.0383,2.31532 1.59189,19.87807 0.0974,20.3255 -2.9848,0.8936 -15.863032,0.13035 -15.688682,-0.45061 0.203025,-0.6765 -2.810525,-19.88953 -2.422513,-20.10239 z"
         id="path59617-5"
         sodipodi:nodetypes="ssssss" />
      <path
         style="fill:none;stroke:#000000;stroke-width:1.466;stroke-linejoin:round"
         d="m 110.63436,122.54354 c 0.57276,-0.9701 17.86174,-0.91953 17.93507,0.45393 0.12346,2.31235 1.90955,19.11521 0.41505,19.56264 -2.9848,0.8936 -18.25103,0.18207 -17.94808,-0.3434 0.52763,-0.91518 -1.20929,-18.30592 -0.46143,-19.57259 z"
         id="path59617-11"
         sodipodi:nodetypes="ssssss" />
      <path
         style="fill:none;stroke:#000000;stroke-width:1.466;stroke-linejoin:round"
         d="m 131.84492,122.4382 c -0.41725,-1.08804 23.04737,-1.30288 23.04633,0.12494 -0.002,2.31564 -2.77497,19.16494 -4.26946,19.61237 -2.9848,0.8936 -18.22425,0.50092 -18.02818,-0.0731 0.23129,-0.67712 -0.11464,-18.01089 -0.68792,-19.50578 z"
         id="path59617-42"
         sodipodi:nodetypes="ssssss"
         clip-path="url(#clipPath60720)" />
      <path
         style="fill:none;stroke:#000000;stroke-width:1.466;stroke-linejoin:round"
         d="m 151.72105,147.11129 6.80147,27.17858 -116.130693,0.18261 c -2.624752,3.68974 0.775108,4.44707 2.461539,5.34384 l 116.625264,0.0993 c 1.82478,-0.51704 2.82889,-1.49964 2.51833,-3.22804 l -8.10515,-31.4252 z"
         id="path59780"
         sodipodi:nodetypes="cccccccc"
         clip-path="url(#clipPath60730)" />
      <ellipse
         style="fill:none;stroke:#000000;stroke-width:1.466;stroke-linejoin:round"
         id="path59831"
         cx="53.283325"
         cy="191.34012"
         rx="6.548728"
         ry="6.3027606" />
      <ellipse
         style="fill:none;stroke:#000000;stroke-width:1.466;stroke-linejoin:round"
         id="path59831-8"
         cx="157.48961"
         cy="190.99295"
         rx="6.548728"
         ry="6.3027606" />
      <path
         style="fill:none;stroke:#000000;stroke-width:1.466;stroke-linejoin:round"
         d="m 45.490669,180.24582 c -0.21133,2.8719 -0.467475,5.739 0.22656,8.70763 2.787443,2.41822 5.568123,3.15434 8.019407,3.8957 2.674774,-0.0969 1.907207,-1.3553 1.48826,-2.49606 l -4.070418,-2.40778 c -0.574853,-0.38172 -1.521509,-0.74191 -1.420711,-1.59008 0.542097,-1.8303 0.704328,-3.4448 0.659171,-5.65678 z"
         id="path59782"
         sodipodi:nodetypes="cccccccc" />
      <path
         style="fill:none;stroke:#000000;stroke-width:1.466;stroke-linejoin:round"
         d="m 150.03862,179.66264 c -0.21133,2.8719 -0.46748,5.739 0.22656,8.70763 2.78744,2.41822 5.56812,3.15434 8.01941,3.8957 2.67477,-0.0969 1.9072,-1.3553 1.48826,-2.49606 l -4.07042,-2.40778 c -0.57485,-0.38172 -1.52151,-0.74191 -1.42071,-1.59008 0.54209,-1.8303 0.70433,-3.4448 0.65917,-5.65678 z"
         id="path59782-2"
         sodipodi:nodetypes="cccccccc" />
      <path
         style="fill:none;stroke:#000000;stroke-width:1.466;stroke-linejoin:round"
         d="m 160.18019,93.243169 7.25083,-18.424396 c 2.24326,-4.708451 3.66599,-3.73905 5.3555,-4.61562 l 30.08472,0.736443 c 4.79093,4.378266 3.19683,8.438932 -1.59838,9.325877 l -26.77384,-3.897328 c -2.01202,0.04724 -3.08441,1.195614 -3.53546,3.072122 l -5.5684,13.800817 z"
         id="path59857"
         sodipodi:nodetypes="ccccccccc"
         clip-path="url(#clipPath60914)" />
      <ellipse
         style="fill:none;stroke:#000000;stroke-width:1.466;stroke-linejoin:round"
         id="path59859"
         cx="53.340508"
         cy="191.11226"
         rx="0.098143034"
         ry="0.08376947" />
      <ellipse
         style="fill:none;stroke:#000000;stroke-width:1.466;stroke-linejoin:round"
         id="path59859-7"
         cx="157.82719"
         cy="190.47121"
         rx="0.098143034"
         ry="0.08376947" />
      <ellipse
         style="fill:none;stroke:#000000;stroke-width:1.466;stroke-linejoin:round"
         id="path59883"
         cx="200.14357"
         cy="75.395485"
         rx="2.2929337"
         ry="2.2466698" />
      <path
         style="fill:#e6e6e6;stroke:none;stroke-width:3.54598;stroke-linejoin:round"
         d="m 301.10919,676.46167 -132.15526,-0.32595 -2.87989,-1.51036 c -3.64605,-1.91216 -6.39977,-4.47501 -6.39977,-5.95616 0,-0.631 0.44434,-2.25779 0.98743,-3.6151 l 0.98743,-2.46783 219.28533,-0.44681 c 156.51611,-0.3189 219.52558,-0.64618 220.12463,-1.14335 0.46161,-0.38311 0.83929,-1.57522 0.83929,-2.64916 0,-2.63169 -24.71622,-100.51107 -26.26549,-104.01469 -1.08215,-2.44725 -1.39232,-2.70662 -2.67864,-2.23992 -0.80012,0.2903 -83.09984,0.43105 -182.88826,0.31278 -178.02046,-0.21099 -181.52323,-0.23872 -186.20447,-1.47397 -6.22373,-1.64228 -12.59902,-5.03469 -15.80429,-8.40974 l -2.56493,-2.7008 -19.61964,-79.67714 c -26.16167,-106.24495 -23.66217,-95.49498 -22.87957,-98.40132 0.36373,-1.35081 1.4753,-3.23584 2.47015,-4.18898 l 1.80882,-1.73294 229.77133,0.005 229.77134,0.005 2.3002,-4.96156 c 1.26511,-2.72863 7.09514,-17.20089 12.95562,-32.16036 13.80712,-35.2441 14.15987,-36.08505 17.11101,-40.79357 2.9992,-4.7852 4.8615,-6.20733 10.55892,-8.06325 l 4.31603,-1.40594 55.54744,1.35109 55.54744,1.35109 2.48889,2.43035 c 3.94584,3.853 6.68505,9.53064 6.69896,13.88513 0.01,3.11094 -0.27178,3.98552 -1.95849,6.07978 -1.08355,1.34538 -3.09468,3.09375 -4.46917,3.88528 -5.55848,3.20097 -3.15765,3.39183 -58.23865,-4.62997 -34.56804,-5.03436 -51.65211,-7.27477 -53.2556,-6.98394 -5.41318,0.98178 -10.44772,5.22594 -12.18751,10.27416 -1.44643,4.19704 -19.94057,50.22765 -21.90921,54.5305 -1.02459,2.23944 -1.86289,4.32737 -1.86289,4.63983 0,0.31247 1.38356,0.56813 3.07459,0.56813 2.30116,0 3.8191,0.47216 6.03428,1.87698 3.77619,2.39479 4.58061,3.90832 4.06716,7.65242 -0.22251,1.62258 -9.42869,41.67149 -20.45817,88.99758 l -20.05359,86.04742 -3.61151,3.36159 c -1.98634,1.84887 -3.61152,3.72318 -3.61152,4.16513 0,0.44195 6.91175,27.60837 15.35945,60.36981 8.44769,32.76145 15.35944,60.63534 15.35944,61.94198 0,2.75902 -1.37828,4.41395 -4.94507,5.93762 -2.1205,0.90584 -4.83159,0.98198 -22.25395,0.62497 -10.91161,-0.22359 -20.70325,-0.36704 -21.75922,-0.31877 -5.94738,0.27185 -152.25446,0.25962 -266.55042,-0.0223 z M 486.49183,542.35833 c 2.78122,-0.58687 4.49996,-2.35907 5.41187,-5.58021 1.54651,-5.46274 0.59742,-32.38132 -2.26928,-64.36217 -0.6725,-7.50227 -1.04641,-9.39146 -2.05921,-10.40427 -3.01714,-3.01714 -23.27119,-4.81974 -47.27102,-4.20711 -15.9062,0.40603 -22.57481,1.28166 -24.51526,3.21898 -1.66735,1.66466 -1.72682,17.35578 -0.16715,44.10716 0.72779,12.48302 1.32325,25.28767 1.32325,28.45479 0,4.13361 0.25084,5.96658 0.88902,6.49622 2.55452,2.12007 19.83353,3.20612 46.46927,2.92077 11.08761,-0.11878 21.07243,-0.40865 22.18851,-0.64416 z m 70.92815,-0.62725 c 13.74932,-0.63044 15.18621,-1.3431 17.87822,-8.86713 3.99022,-11.15249 10.44038,-43.59276 12.59783,-63.35924 l 0.8293,-7.59816 -1.68215,-1.44693 c -2.18655,-1.88079 -7.15491,-2.7219 -20.73568,-3.51043 -20.10008,-1.16705 -54.35499,-0.46262 -64.56552,1.32775 -6.43546,1.12843 -6.41344,1.08602 -5.53335,10.65195 1.09323,11.88274 2.00533,36.57096 2.00969,54.39756 0.004,15.3821 0.0152,15.51185 1.44374,16.41004 2.22485,1.39884 6.55644,1.82119 23.51915,2.29322 15.44769,0.42987 19.0328,0.3986 34.23877,-0.29863 z m -155.92677,-0.33685 c 8.37933,-1.05068 8.83111,-1.64069 9.75441,-12.73908 0.9238,-11.10425 -1.68184,-66.83856 -3.26288,-69.79277 -1.74782,-3.26581 -6.52818,-3.89068 -29.59226,-3.86812 -17.62472,0.0172 -37.76914,0.84436 -41.13429,1.68896 -0.7844,0.19687 -1.79833,1.05331 -2.25317,1.90319 -1.03222,1.92872 -0.63209,5.84006 4.48031,43.79555 2.06237,15.31145 3.94091,29.58328 4.17453,31.71519 0.50713,4.62788 1.08931,5.11786 7.18362,6.04594 11.37634,1.73247 40.97927,2.46371 50.64973,1.25114 z m -71.26507,-1.86749 c 3.97383,-0.81626 5.84213,-2.80422 6.45095,-6.8641 0.73218,-4.88254 -0.1942,-27.76473 -1.61456,-39.88034 -2.43661,-20.78426 -5.31775,-33.92476 -7.9883,-36.43361 -2.50117,-2.34973 -9.41388,-2.85264 -39.72655,-2.89014 -31.00729,-0.0383 -31.65982,0.0338 -32.91728,3.64098 -1.80572,5.17988 -0.142,17.79026 7.62068,57.76198 1.70894,8.79968 3.31319,17.39763 3.56501,19.10654 0.39949,2.711 0.72034,3.2168 2.51672,3.96737 1.82171,0.76116 10.99225,1.7669 22.41476,2.45823 7.16781,0.43383 36.46199,-0.2062 39.67857,-0.86691 z m -76.57458,-0.56519 c 1.53041,-0.32556 3.21789,-1.02726 3.74996,-1.55933 3.41797,-3.41797 2.15481,-17.23378 -5.626,-61.53431 -3.44357,-19.60614 -3.59885,-20.01023 -8.2219,-21.39532 -12.02859,-3.60385 -62.27103,-5.43509 -66.84752,-2.43646 -1.7039,1.11644 -2.30602,3.97246 -1.10882,5.25945 0.31106,0.33438 1.05321,4.06385 1.64923,8.2877 1.40872,9.98331 7.43445,42.93059 9.94886,54.39805 2.59734,11.84569 3.8417,15.65381 5.46208,16.71552 3.07382,2.01406 23.28801,3.44374 43.81206,3.09871 7.91971,-0.13314 15.65163,-0.50844 17.18205,-0.83401 z m 350.7642,-98.38197 c 2.34488,-2.42309 4.57182,-8.21568 6.99488,-18.19475 3.38019,-13.92091 7.12515,-37.66749 7.12515,-45.18025 0,-5.64919 -2.3297,-7.19559 -12.91,-8.56938 -10.71572,-1.39138 -53.94378,-0.44078 -58.48589,1.28613 -0.82201,0.31253 -2.0136,1.3594 -2.64798,2.32639 -1.6368,2.49496 -1.878,18.90127 -0.53481,36.3776 0.5681,7.39174 1.18321,17.03939 1.36688,21.43923 0.40385,9.67397 0.56996,10.60234 2.00883,11.22719 1.92421,0.8356 19.5439,1.44124 37.79646,1.29916 l 17.47167,-0.136 z m -229.13119,1.01632 c 7.80575,-0.8974 9.58859,-1.62418 10.79771,-4.40168 2.1905,-5.03183 1.58776,-25.96572 -1.58538,-55.06263 -1.67834,-15.38995 -1.12334,-15.11026 -29.95163,-15.09382 -18.32763,0.0104 -32.11804,0.85398 -37.64706,2.3028 -3.52483,0.92364 -4.27144,3.13253 -4.27144,12.63735 0,4.19786 0.29254,10.61487 0.6501,14.26004 0.85153,8.68125 4.48247,40.14106 4.84371,41.96783 0.39383,1.99155 2.10914,2.72247 7.80308,3.32503 7.08914,0.75022 42.9898,0.79754 49.36091,0.0651 z m 77.56122,-0.57557 c 4.59396,-1.44226 5.8361,-4.73227 7.01429,-18.57868 0.90645,-10.65286 0.52434,-48.84933 -0.51337,-51.31683 -1.06518,-2.53282 -4.46076,-3.74737 -12.65599,-4.52688 -12.25229,-1.16541 -49.05325,1.39259 -52.56976,3.65408 -2.57513,1.65608 -2.99229,4.65715 -2.572,18.50308 0.2142,7.05676 1.11722,19.88622 2.00671,28.50991 0.88948,8.62369 1.6197,16.71477 1.62269,17.98016 0.01,4.14637 2.63246,5.19682 15.68488,6.28228 9.41077,0.78261 39.01342,0.42504 41.98255,-0.50712 z m 84.25292,-0.24108 c 1.12301,-0.88691 1.05472,-15.28633 -0.20863,-43.9935 -1.13943,-25.8914 -1.12905,-25.84004 -5.51925,-27.31202 -6.42943,-2.1557 -30.62791,-2.87321 -48.5185,-1.4386 -12.97422,1.04037 -13.7926,1.64341 -15.63222,11.51882 -2.24486,12.05081 -5.12089,59.4441 -3.69392,60.87107 0.41234,0.41234 1.97938,0.94374 3.48232,1.18089 4.26186,0.6725 69.16117,-0.0929 70.0902,-0.82666 z m -305.58495,-1.25963 c 3.41734,-1.52595 3.9427,-3.27362 3.90032,-12.97494 -0.0408,-9.34953 -0.60692,-15.17207 -3.79535,-39.0386 -2.44706,-18.31712 -2.72524,-19.13782 -7.04992,-20.79925 -5.55379,-2.13362 -51.58285,-0.61589 -59.55061,1.96358 -5.45988,1.76757 -4.73492,8.65628 5.01299,47.63464 2.81686,11.26359 5.40444,20.82342 5.7502,21.24407 1.77392,2.15817 14.80929,3.30048 36.049,3.15903 14.61792,-0.0974 17.64966,-0.28042 19.68337,-1.18853 z m 76.24324,0.81639 c 4.27888,-0.99262 4.56775,-1.65612 4.41317,-10.13659 -0.0751,-4.12203 -0.72169,-13.1104 -1.43678,-19.97415 -0.7151,-6.86376 -1.9136,-18.52734 -2.66334,-25.91907 -1.48012,-14.59263 -1.63526,-15.04847 -5.6003,-16.45532 -4.51898,-1.60339 -47.89049,-0.72092 -58.81784,1.19676 -1.1535,0.20243 -2.35067,0.84154 -2.66039,1.42025 -0.33313,0.62245 -0.1769,6.79998 0.3825,15.12498 0.52009,7.74002 1.0624,22.83518 1.20515,33.54479 0.14955,11.22041 0.52007,19.73255 0.87436,20.08683 1.30354,1.30355 59.16433,2.3037 64.30347,1.11152 z m 453.70409,-144.8996 c 6.12175,-2.55783 8.52094,-10.88281 4.8487,-16.8246 -3.23663,-5.23699 -11.25397,-6.79176 -16.45093,-3.19026 -2.94918,2.04378 -5.2476,6.10437 -5.2476,9.27085 0,4.25795 3.0168,9.06775 6.71976,10.71354 2.50907,1.11516 7.49811,1.13017 10.13007,0.0305 z"
         id="path61127"
         transform="scale(0.26458333)" />
      <path
         style="opacity:1;fill:#b3b3b3;stroke:#b3b3b3;stroke-width:1.71036;stroke-linejoin:round"
         d="m 196.39893,743.15943 c -8.25669,-2.14077 -14.4344,-8.62088 -16.24779,-17.04313 l -0.62718,-2.9129 6.62736,3.03411 c 13.06389,5.98087 20.16758,7.01603 24.98608,3.64101 1.53996,-1.07862 1.99777,-2.28507 1.97314,-5.1997 -0.0176,-2.08736 -0.53761,-4.70512 -1.15549,-5.81724 -0.61787,-1.11211 -5.28715,-4.48377 -10.37616,-7.49257 -5.08902,-3.0088 -9.25275,-5.837 -9.25275,-6.2849 0,-0.4479 2.17023,-1.30004 4.82275,-1.89365 4.0607,-0.90875 5.63317,-0.84369 9.95167,0.41173 15.48529,4.5017 20.55445,21.8194 9.78525,33.4292 -4.72553,5.0944 -13.89499,7.83717 -20.48688,6.12804 z"
         id="path68582"
         transform="scale(0.26458333)" />
      <path
         style="opacity:1;fill:#b3b3b3;stroke:#b3b3b3;stroke-width:1.71036;stroke-linejoin:round"
         d="m 585.37537,739.84572 c -5.37315,-2.67755 -9.02115,-7.03195 -10.77591,-12.86257 -1.98665,-6.60114 -1.79168,-6.86146 3.23228,-4.31563 20.72206,10.50067 34.39789,8.28597 29.82562,-4.83004 -0.80404,-2.30646 -2.82875,-3.93361 -10.40512,-8.36202 -5.17376,-3.02407 -9.61976,-5.84283 -9.88,-6.2639 -0.66642,-1.07831 7.09995,-2.10665 11.47662,-1.51961 8.48763,1.13843 16.7559,9.65569 17.72567,18.25948 0.91067,8.07948 -4.02939,16.36853 -11.95468,20.05902 -6.30649,2.93669 -13.13809,2.87821 -19.24448,-0.16473 z"
         id="path68584"
         transform="scale(0.26458333)" />
      <path
         style="opacity:1;fill:#ececec;stroke:none;stroke-width:1.71036;stroke-linejoin:round"
         d="m 174.81852,707.31347 c -0.73918,-5.39292 -0.75305,-17.42015 -0.0232,-20.1435 0.45511,-1.69824 1.16694,-2.03434 4.2867,-2.02403 2.05753,0.007 4.71146,0.27209 5.89763,0.58954 2.09126,0.55968 2.14106,0.78355 1.64207,7.38141 -0.48819,6.45498 -0.69334,6.97057 -3.99676,10.04497 -1.91518,1.7824 -4.32154,4.42021 -5.34746,5.86179 l -1.8653,2.62106 z"
         id="path68726"
         transform="scale(0.26458333)" />
      <path
         style="opacity:1;fill:#ececec;stroke:none;stroke-width:1.71036;stroke-linejoin:round"
         d="m 190.13638,720.90022 c -3.94218,-1.72096 -7.54053,-3.50195 -7.99633,-3.95775 -0.84127,-0.84127 1.25016,-5.8718 2.85304,-6.86243 0.45397,-0.28057 3.77614,1.30912 7.38261,3.53266 3.60646,2.22353 7.00162,4.19093 7.5448,4.37198 0.59475,0.19825 0.34008,0.97671 -0.64025,1.95703 -0.8953,0.89531 -1.41355,2.18624 -1.15165,2.86873 0.67188,1.7509 0.0584,1.60427 -7.99222,-1.91022 z"
         id="path68728"
         transform="scale(0.26458333)" />
      <path
         style="opacity:1;fill:#ececec;stroke:none;stroke-width:0.427589;stroke-linejoin:round"
         d="m 202.39498,725.6352 c -0.55285,-0.17705 -0.55393,-0.18167 -0.0478,-0.20371 0.28482,-0.0124 0.93502,-0.41167 1.44487,-0.88726 0.86701,-0.80874 0.92822,-0.94762 0.94553,-2.14556 0.0105,-0.72907 -0.10016,-1.39952 -0.25697,-1.55634 -0.60883,-0.60882 -0.2143,-0.62922 0.82884,-0.0428 0.98755,0.55513 1.15697,0.76987 1.60206,2.03065 0.67458,1.91081 0.57787,2.38398 -0.55687,2.72475 -1.02699,0.30842 -3.11515,0.35077 -3.95965,0.0803 z"
         id="path68730"
         transform="scale(0.26458333)" />
      <path
         style="opacity:1;fill:#ececec;stroke:none;stroke-width:0.427589;stroke-linejoin:round"
         d="m 570.00306,707.49194 c -0.75428,-4.86522 -0.8955,-7.60782 -0.74932,-14.55218 0.0786,-3.73339 0.20889,-7.54003 0.28956,-8.4592 l 0.14668,-1.67121 5.45434,0.15136 c 2.99989,0.0833 5.95313,0.21038 6.56275,0.28251 l 1.10841,0.13115 -0.15226,3.4251 c -0.1486,3.3429 -0.76938,8.28423 -1.35382,10.7762 -0.28211,1.20289 -0.35118,1.28407 -2.19799,2.58335 -2.56817,1.80677 -5.48231,4.78692 -7.10092,7.26177 -0.73251,1.12001 -1.40244,2.11932 -1.48873,2.22068 -0.0863,0.10136 -0.3197,-0.86592 -0.5187,-2.14953 z"
         id="path68732"
         transform="scale(0.26458333)" />
      <path
         style="opacity:1;fill:#ececec;stroke:none;stroke-width:0.427589;stroke-linejoin:round"
         d="m 590.66751,721.25913 c -5.63583,-1.927 -8.91989,-3.415 -13.17123,-5.96785 l -2.4299,-1.45911 0.59137,-1.1693 c 0.95716,-1.89254 2.23768,-3.64503 3.81833,-5.22568 l 1.48012,-1.48013 1.29197,1.30663 c 1.23952,1.25359 2.51303,2.06111 13.23658,8.39319 l 1.76265,1.04081 -1.03084,0.11314 c -2.59841,0.28517 -3.82333,3.29175 -2.09718,5.14755 0.26044,0.28 0.37942,0.50703 0.26439,0.5045 -0.11503,-0.003 -1.78734,-0.54422 -3.71626,-1.20375 z"
         id="path68734"
         transform="scale(0.26458333)" />
      <path
         style="opacity:1;fill:#ececec;stroke:none;stroke-width:0.427589;stroke-linejoin:round"
         d="m 597.75456,723.52502 c -0.9481,-0.35018 -1.17614,-0.60501 -0.54141,-0.60501 1.73902,0 3.0656,-2.65338 2.17762,-4.35562 -0.40176,-0.77019 -0.3423,-0.7704 1.02157,-0.004 0.94166,0.52933 1.16756,0.79843 1.56696,1.86669 0.25668,0.68651 0.4893,1.54653 0.51693,1.91116 0.045,0.59328 -0.0449,0.69079 -0.85482,0.92784 -1.48966,0.43597 -3.11413,0.54408 -3.88685,0.25867 z"
         id="path68736"
         transform="scale(0.26458333)" />
      <path
         style="opacity:1;fill:#000000;stroke:#000000;stroke-width:0.427589;stroke-linejoin:round"
         d="m 595.02812,721.44296 c -0.71521,-0.71521 -0.78558,-0.89266 -0.67651,-1.70587 0.1459,-1.08775 0.48331,-1.53645 1.46345,-1.94615 0.62807,-0.26254 0.8521,-0.25861 1.53544,0.0269 1.63746,0.68418 1.83082,2.90876 0.34023,3.91427 -1.06621,0.71924 -1.72585,0.64761 -2.66261,-0.28915 z"
         id="path68738"
         transform="scale(0.26458333)" />
      <path
         style="opacity:1;fill:#000000;stroke:#000000;stroke-width:0.427589;stroke-linejoin:round"
         d="m 201.15051,724.55015 c -0.24889,-0.0497 -0.73253,-0.35398 -1.07476,-0.67628 -1.69492,-1.59621 0.17103,-4.55886 2.31259,-3.6718 1.45912,0.60439 1.86723,2.61913 0.742,3.66311 -0.67105,0.6226 -1.26407,0.82777 -1.97983,0.68497 z"
         id="path68740"
         transform="scale(0.26458333)" />
      <path
         style="opacity:1;fill:none;stroke:#000000;stroke-width:0.499999;stroke-linejoin:round"
         d="m 45.930583,96.283215 -4.485778,0.591886 c -0.398582,0.04503 -0.599626,0.496294 -0.572434,0.840884 l 1.084531,5.727225"
         id="path68742"
         sodipodi:nodetypes="cccc" />
      <path
         style="opacity:1;fill:none;stroke:#000000;stroke-width:0.499999;stroke-linejoin:round"
         d="m 43.956792,95.139911 -4.197002,0.276556 c -0.551878,-0.02471 -0.688816,0.349298 -0.658562,0.883955 l 0.977585,4.620728"
         id="path68744"
         sodipodi:nodetypes="cccc" />
      <path
         style="opacity:1;fill:none;stroke:#000000;stroke-width:0.499999;stroke-linejoin:round"
         d="m 46.353965,183.47554 1.765599,-1.48753"
         id="path68799" />
      <path
         style="opacity:1;fill:none;stroke:#000000;stroke-width:0.499999;stroke-linejoin:round"
         d="m 46.607867,184.68072 2.415979,-1.97861"
         id="path68801" />
      <path
         style="opacity:1;fill:none;stroke:#000000;stroke-width:0.499999;stroke-linejoin:round"
         d="m 48.721115,189.60032 1.552713,-0.88988"
         id="path68803" />
      <path
         style="opacity:1;fill:none;stroke:#000000;stroke-width:0.499999;stroke-linejoin:round"
         d="m 151.07607,182.42856 1.37303,-1.16674"
         id="path68805" />
      <path
         style="opacity:1;fill:none;stroke:#000000;stroke-width:0.499999;stroke-linejoin:round"
         d="m 150.89639,183.79853 2.31246,-1.99179"
         id="path68807" />
      <path
         style="opacity:1;fill:none;stroke:#000000;stroke-width:0.499999;stroke-linejoin:round"
         d="m 151.48622,185.0938 1.44529,-1.53806"
         id="path68809" />
      <path
         style="opacity:1;fill:none;stroke:#000000;stroke-width:0.499999;stroke-linejoin:round"
         d="m 153.42174,189.2993 1.19139,-0.62511"
         id="path68811" />
      <path
         style="opacity:1;fill:none;stroke:#000000;stroke-width:0.499999;stroke-linejoin:round"
         d="m 154.07956,176.16392 5.58358,0.13983 c 0.83299,-0.14494 1.5483,-0.3826 1.39347,-1.30586 l -1.64897,-5.48915"
         id="path68815"
         sodipodi:nodetypes="cccc" />
      <path
         style="opacity:1;fill:none;stroke:#000000;stroke-width:0.499999;stroke-linejoin:round"
         d="m 151.39205,177.42861 10.45314,0.0971"
         id="path68817" />
      <path
         style="opacity:1;fill:none;stroke:#000000;stroke-width:0.499999;stroke-linejoin:round"
         d="m 45.581059,174.56399 c 0,0.22045 -0.01831,0.44167 0,0.66136 0.02193,0.26304 0.114096,0.51612 0.148434,0.77782 0.07481,0.57016 0.09961,1.12548 0.09961,1.69956"
         id="path68827" />
      <path
         style="opacity:1;fill:none;stroke:#000000;stroke-width:0.499999;stroke-linejoin:round"
         d="m 47.092753,174.57717 c 0.191037,0.4258 -0.170201,1.06976 0,1.504 0.07023,0.17917 0.109373,0.16693 0.109373,0.36914"
         id="path68831" />
      <path
         style="opacity:1;fill:none;stroke:#000000;stroke-width:0.499999;stroke-linejoin:round"
         d="m 48.47164,174.97157 c 0.200223,0.85168 0.431633,1.74153 0.431633,2.6224"
         id="path68833" />
      <path
         style="opacity:1;fill:none;stroke:#000000;stroke-width:0.499999;stroke-linejoin:round"
         d="m 50.223565,174.90676 c -0.108082,-0.27669 0.125,1.94431 0.125,1.504"
         id="path68835" />
      <path
         style="opacity:1;fill:none;stroke:#000000;stroke-width:0.499999;stroke-linejoin:round"
         d="m 51.830962,174.7145 c -0.03086,1.09911 0.576164,2.19456 0.576164,3.30354"
         id="path68837" />
      <path
         style="opacity:1;fill:none;stroke:#000000;stroke-width:0.499999;stroke-linejoin:round"
         d="m 53.164927,175.24403 c -0.06509,0.53478 0.259506,0.97861 0.308589,1.48533 0.01064,0.10975 0.09395,0.42412 0.03906,0.32848 -0.0294,-0.0512 -0.05989,-0.1018 -0.08984,-0.1527"
         id="path68839" />
      <path
         style="opacity:1;fill:none;stroke:#000000;stroke-width:0.499999;stroke-linejoin:round"
         d="m 54.330925,174.83754 c 0.235976,0.30132 0.03946,0.67374 0.109373,0.99535 0.03986,0.18337 0.08008,0.11448 0.08008,0.29333"
         id="path68841" />
      <path
         style="opacity:1;fill:none;stroke:#000000;stroke-width:0.499999;stroke-linejoin:round"
         d="m 55.457859,174.787 c 0,0.14795 -0.01669,0.29684 0,0.44385 0.03796,0.33419 0.150659,0.68279 0.203124,1.01841 0.0535,0.34225 0.0571,0.70783 0.13281,1.04589 0.05016,0.22397 0.17893,0.42054 0.193357,0.65587"
         id="path68843" />
      <path
         style="opacity:1;fill:none;stroke:#000000;stroke-width:0.499999;stroke-linejoin:round"
         d="m 56.785964,174.76723 c 0.114568,0.52274 0.208878,1.0472 0.324215,1.57432"
         id="path68845" />
      <path
         style="opacity:1;fill:none;stroke:#000000;stroke-width:0.499999;stroke-linejoin:round"
         d="m 58.338677,175.00783 c 0.170942,0.87303 0.331179,1.74094 0.531241,2.60591 0.03301,0.14271 0.04576,0.30629 0.119139,0.43286"
         id="path68847" />
      <path
         style="opacity:1;fill:none;stroke:#000000;stroke-width:0.499999;stroke-linejoin:round"
         d="m 60.289818,175.29457 c 0,0.1582 -0.02077,0.31777 0,0.4746 0.04211,0.31811 0.108913,0.28506 0.177731,0.52733 0.03043,0.10713 0.05469,0.44095 0.05469,0.32959 0,-0.0278 0,-0.0557 0,-0.0835"
         id="path68849" />
      <path
         style="opacity:1;fill:none;stroke:#000000;stroke-width:0.499999;stroke-linejoin:round"
         d="m 62.069088,175.27259 c 0.005,0.34225 0.1124,0.64873 0.16406,0.97667"
         id="path68851" />
      <path
         style="opacity:1;fill:none;stroke:#000000;stroke-width:0.499999;stroke-linejoin:round"
         d="m 63.473364,175.27259 c 0.322699,0.81274 0.301177,1.92739 0.62499,2.7015"
         id="path68853" />
      <path
         style="opacity:1;fill:none;stroke:#000000;stroke-width:0.499999;stroke-linejoin:round"
         d="m 65.002637,175.20777 c 0.0744,0.4646 0.148434,0.92153 0.148434,1.39305"
         id="path68855" />
      <path
         style="opacity:1;fill:none;stroke:#000000;stroke-width:0.499999;stroke-linejoin:round"
         d="m 66.266289,175.16054 c 0.258099,0.3674 0.265581,0.85647 0.460931,1.24473"
         id="path68857" />
      <path
         style="opacity:1;fill:none;stroke:#000000;stroke-width:0.499999;stroke-linejoin:round"
         d="m 180.61696,71.82342 0.0414,1.540084"
         id="path68873" />
      <path
         style="opacity:1;fill:none;stroke:#000000;stroke-width:0.499999;stroke-linejoin:round"
         d="m 181.71075,71.674267 0.29831,3.743976"
         id="path68875" />
      <path
         style="opacity:1;fill:none;stroke:#000000;stroke-width:0.499999;stroke-linejoin:round"
         d="m 183.06349,71.90732 0.0628,1.31713"
         id="path68877" />
      <path
         style="opacity:1;fill:none;stroke:#000000;stroke-width:0.499999;stroke-linejoin:round"
         d="m 184.49425,71.964417 0.12982,2.340226"
         id="path68879" />
      <path
         style="opacity:1;fill:none;stroke:#000000;stroke-width:0.499999;stroke-linejoin:round"
         d="m 185.96438,71.939948 0.0911,3.296904"
         id="path68881" />
      <path
         style="opacity:1;fill:none;stroke:#000000;stroke-width:0.499999;stroke-linejoin:round"
         d="m 187.2377,72.187371 c 0,0.127402 0.001,1.368401 0.001,1.368401"
         id="path68883" />
      <path
         style="opacity:1;fill:none;stroke:#000000;stroke-width:0.499999;stroke-linejoin:round"
         d="m 188.63877,72.355167 -0.0787,0.698378"
         id="path68885" />
      <path
         style="opacity:1;fill:none;stroke:#000000;stroke-width:0.499999;stroke-linejoin:round"
         d="m 154.89317,142.04014 2.23044,-6.53896"
         id="path68887" />
      <path
         style="opacity:1;fill:none;stroke:#000000;stroke-width:0.499999;stroke-linejoin:round"
         d="m 154.42443,137.81706 1.75779,-5.38102"
         id="path68891" />
      <path
         style="opacity:1;fill:none;stroke:#000000;stroke-width:0.499999;stroke-linejoin:round"
         d="m 50.939403,192.21465 -2.287074,0.72838"
         id="path68893" />
      <path
         style="opacity:1;fill:none;stroke:#000000;stroke-width:0.499999;stroke-linejoin:round"
         d="m 52.044853,192.42339 -1.865204,2.13241"
         id="path68895" />
      <path
         style="opacity:1;fill:none;stroke:#000000;stroke-width:0.499999;stroke-linejoin:round"
         d="m 52.570236,192.63542 -0.02344,2.95198"
         id="path68897" />
      <path
         style="opacity:1;fill:none;stroke:#000000;stroke-width:0.499999;stroke-linejoin:round"
         d="m 53.484285,192.95951 0.937487,2.39169"
         id="path68899" />
      <path
         style="opacity:1;fill:none;stroke:#000000;stroke-width:0.499999;stroke-linejoin:round"
         d="m 54.56044,192.90128 1.388653,0.83715"
         id="path68901" />
      <path
         style="opacity:1;fill:none;stroke:#000000;stroke-width:0.499999;stroke-linejoin:round"
         d="m 55.794796,191.79058 1.623022,0.29223"
         id="path68903" />
      <path
         style="opacity:1;fill:none;stroke:#000000;stroke-width:0.499999;stroke-linejoin:round"
         d="m 55.697143,193.57364 c 0,0 -0.628899,-0.96788 0,0 z"
         id="path68905" />
      <path
         style="opacity:1;fill:none;stroke:#000000;stroke-width:0.499999;stroke-linejoin:round"
         d="m 55.394412,190.69306 1.740207,-1.07994"
         id="path68907" />
      <path
         style="opacity:1;fill:none;stroke:#000000;stroke-width:0.499999;stroke-linejoin:round"
         d="m 54.247946,189.44064 0.927719,-1.38645"
         id="path68909" />
      <path
         style="opacity:1;fill:none;stroke:#000000;stroke-width:0.499999;stroke-linejoin:round"
         d="m 52.665939,188.87156 0.312494,-1.72702"
         id="path68911" />
      <path
         style="opacity:1;fill:none;stroke:#000000;stroke-width:0.499999;stroke-linejoin:round"
         d="M 153.15913,191.69281 Z"
         id="path68913" />
      <path
         style="opacity:1;fill:none;stroke:#000000;stroke-width:0.499999;stroke-linejoin:round"
         d="m 154.4931,191.57525 -1.38865,0.63391"
         id="path68915" />
      <path
         style="opacity:1;fill:none;stroke:#000000;stroke-width:0.499999;stroke-linejoin:round"
         d="m 155.58878,191.50274 -1.62107,2.3862"
         id="path68917" />
      <path
         style="opacity:1;fill:none;stroke:#000000;stroke-width:0.499999;stroke-linejoin:round"
         d="m 157.06727,192.21465 0.0293,2.75642"
         id="path68919" />
      <path
         style="opacity:1;fill:none;stroke:#000000;stroke-width:0.499999;stroke-linejoin:round"
         d="m 156.03018,191.90484 -0.50585,1.8995"
         id="path68921" />
      <path
         style="opacity:1;fill:none;stroke:#000000;stroke-width:0.499999;stroke-linejoin:round"
         d="m 158.52624,192.76396 0.49608,1.8193"
         id="path68923" />
      <path
         style="opacity:1;fill:none;stroke:#000000;stroke-width:0.499999;stroke-linejoin:round"
         d="m 159.702,192.16961 1.3242,0.9459"
         id="path68925" />
      <path
         style="opacity:1;fill:none;stroke:#000000;stroke-width:0.499999;stroke-linejoin:round"
         d="m 157.18251,187.73559 0.20702,-1.20848"
         id="path68927" />
      <path
         style="opacity:1;fill:none;stroke:#000000;stroke-width:0.499999;stroke-linejoin:round"
         d="m 158.57506,188.91331 0.76952,-1.49522"
         id="path68929" />
      <path
         style="opacity:1;fill:none;stroke:#000000;stroke-width:0.499999;stroke-linejoin:round"
         d="m 159.72739,189.85043 1.51755,-1.12938"
         id="path68931" />
      <path
         style="opacity:1;fill:none;stroke:#000000;stroke-width:0.499999;stroke-linejoin:round"
         d="m 160.26644,191.10944 1.38475,-0.0758"
         id="path68933" />
    </g>
  </g>
</svg>
